<?xml version="1.0" encoding="UTF-8"?>
<svg version="1.1" xmlns="http://www.w3.org/2000/svg" width="1024" height="1024">
<path d="M0 0 C2.95650782 0.010727 5.91240669 0.00001552 8.86889648 -0.01269531 C22.51284584 -0.02256252 35.95520915 0.86362897 49.52319336 2.26074219 C50.6968042 2.37579102 51.87041504 2.49083984 53.07958984 2.609375 C131.03100811 10.59617327 206.71086172 40.5572027 269.52319336 87.26074219 C270.18915527 87.75541992 270.85511719 88.25009766 271.54125977 88.75976562 C284.67307443 98.55962731 297.13825891 108.95385257 309.08666992 120.1652832 C311.56293474 122.48466414 314.06787758 124.73287797 316.69506836 126.87792969 C318.99724603 128.81760977 320.87082944 130.64037437 322.77319336 132.94824219 C326.26761778 137.05341777 330.0371467 140.81380202 333.89819336 144.57324219 C348.63955505 159.66558869 361.62649439 176.88297385 373.52319336 194.26074219 C374.54219727 195.71480469 374.54219727 195.71480469 375.58178711 197.19824219 C404.71084209 239.32683211 425.66117991 286.77283737 438.52319336 336.26074219 C438.78729004 337.25477051 439.05138672 338.24879883 439.32348633 339.27294922 C456.27708571 403.5120979 456.59684241 471.18285214 444.52319336 536.26074219 C444.24137207 537.78368896 444.24137207 537.78368896 443.95385742 539.33740234 C433.92860236 592.0459403 413.07875604 644.4637815 383.52319336 689.26074219 C383.10199219 689.90736816 382.68079102 690.55399414 382.24682617 691.22021484 C372.74588067 705.80221576 362.59497724 719.82555829 351.52319336 733.26074219 C350.72913086 734.22882812 349.93506836 735.19691406 349.11694336 736.19433594 C338.46697055 749.05188854 326.86204904 761.00122065 315.08569336 772.82324219 C314.25755127 773.65605713 313.42940918 774.48887207 312.57617188 775.34692383 C307.71928949 780.19108802 302.7386005 784.80663618 297.52319336 789.26074219 C296.54737305 790.11796875 295.57155273 790.97519531 294.56616211 791.85839844 C272.60775313 810.8129211 247.87590462 828.25231411 222.19360352 841.80615234 C219.73890578 843.14324222 217.37885608 844.56752495 215.00756836 846.04589844 C209.08314721 849.6141277 202.92495096 852.55597172 196.64819336 855.44824219 C196.0457077 855.72631714 195.44322205 856.00439209 194.82247925 856.29089355 C146.23829907 878.64658572 94.79205212 892.48200552 41.52319336 897.26074219 C40.50177246 897.35645508 39.48035156 897.45216797 38.42797852 897.55078125 C27.18239437 898.48945529 15.92650056 898.50426419 4.64819336 898.51074219 C3.0573291 898.5117543 3.0573291 898.5117543 1.43432617 898.51278687 C-16.72495542 898.49452518 -34.46309757 897.66147705 -52.47680664 895.26074219 C-53.12679626 895.17588562 -53.77678589 895.09102905 -54.44647217 895.00360107 C-74.43721588 892.38697341 -93.97871684 888.43424716 -113.47680664 883.26074219 C-114.44150879 883.00679687 -115.40621094 882.75285156 -116.40014648 882.49121094 C-130.3328882 878.78308398 -143.93535987 874.19803397 -157.47680664 869.26074219 C-158.30374023 868.96022949 -159.13067383 868.6597168 -159.98266602 868.35009766 C-170.18248801 864.60974524 -179.8896828 860.27142439 -189.52661133 855.26367188 C-191.45034809 854.27434906 -193.38553676 853.31351384 -195.32836914 852.36230469 C-217.03034026 841.7311516 -238.19427826 829.89295266 -257.47680664 815.26074219 C-258.47067383 814.52082031 -259.46454102 813.78089844 -260.48852539 813.01855469 C-266.54256185 808.50651246 -272.55986075 803.95137805 -278.47680664 799.26074219 C-279.31598633 798.596875 -280.15516602 797.93300781 -281.01977539 797.24902344 C-287.42878372 792.09777144 -293.48088598 786.64369667 -299.48461914 781.03417969 C-301.78946985 778.88442173 -304.13821734 776.80316255 -306.53930664 774.76074219 C-314.13964505 768.17485572 -321.25997445 760.89506692 -327.77758789 753.24121094 C-329.75711096 750.93404267 -331.80322784 748.69427436 -333.85180664 746.44824219 C-338.09942675 741.72945749 -342.17697344 736.90209167 -346.13696289 731.93945312 C-347.09234982 730.74243408 -348.05104793 729.54805469 -349.01196289 728.35546875 C-362.21944345 711.92417644 -373.9711951 694.53628241 -384.47680664 676.26074219 C-384.84080566 675.62894043 -385.20480469 674.99713867 -385.57983398 674.34619141 C-387.87842268 670.34133115 -390.13619688 666.31558016 -392.36499023 662.27148438 C-393.08912715 660.96186829 -393.81837393 659.65506051 -394.5534668 658.3515625 C-419.95757547 613.25839842 -434.94089523 561.39341459 -442.10180664 510.32324219 C-442.21290771 509.53925049 -442.32400879 508.75525879 -442.43847656 507.94750977 C-442.82275276 505.05526543 -443.15577245 502.16076475 -443.47680664 499.26074219 C-443.59968048 498.16774811 -443.59968048 498.16774811 -443.72503662 497.05267334 C-445.41883927 481.61388332 -445.8761425 466.28499088 -445.85180664 450.76074219 C-445.85192749 449.56673798 -445.85204834 448.37273376 -445.85217285 447.14254761 C-445.82182181 425.9492247 -444.48072895 405.22966309 -441.47680664 384.26074219 C-441.32195801 383.12878418 -441.16710937 381.99682617 -441.00756836 380.83056641 C-432.46924641 319.49269878 -409.38692438 259.04584479 -375.47680664 207.26074219 C-374.80262695 206.22175781 -374.12844727 205.18277344 -373.43383789 204.11230469 C-359.47364169 182.87943143 -343.90436468 163.15031788 -326.55883789 144.58886719 C-324.46117224 142.44854069 -324.46117224 142.44854069 -323.47680664 140.26074219 C-322.81680664 140.26074219 -322.15680664 140.26074219 -321.47680664 140.26074219 C-321.27055664 139.72964844 -321.06430664 139.19855469 -320.85180664 138.65136719 C-318.89719472 135.25300783 -316.25556947 132.75018291 -313.47680664 130.01074219 C-312.93024414 129.45644531 -312.38368164 128.90214844 -311.82055664 128.33105469 C-307.73019334 124.26074219 -307.73019334 124.26074219 -305.47680664 124.26074219 C-305.47680664 123.60074219 -305.47680664 122.94074219 -305.47680664 122.26074219 C-304.07836914 120.85058594 -304.07836914 120.85058594 -302.10180664 119.19824219 C-298.95502457 116.53007906 -295.88472976 113.8076597 -292.85180664 111.01074219 C-287.25080259 105.96387096 -281.36448229 101.34127704 -275.39379883 96.74511719 C-273.45439944 95.24339173 -271.53132628 93.72252066 -269.60961914 92.19824219 C-220.62696738 53.6518796 -161.92040894 26.6857751 -101.47680664 12.26074219 C-100.41155762 12.00550781 -99.34630859 11.75027344 -98.2487793 11.48730469 C-79.79347464 7.13537527 -61.3221237 4.25275447 -42.47680664 2.26074219 C-41.67552338 2.17320679 -40.87424011 2.08567139 -40.04867554 1.9954834 C-26.67832646 0.55610646 -13.44595972 -0.05768418 0 0 Z " fill="#201728" transform="translate(508.476806640625,62.7392578125)"/>
<path d="M0 0 C4.47526794 3.04914213 8.37206631 6.63866555 11.28515625 11.23828125 C11.28515625 12.22828125 11.28515625 13.21828125 11.28515625 14.23828125 C12.37828125 14.34140625 13.47140625 14.44453125 14.59765625 14.55078125 C18.49223957 15.27689001 18.84396611 15.49194234 21.28515625 18.23828125 C22.37828125 18.73328125 23.47140625 19.22828125 24.59765625 19.73828125 C29.79710346 22.54819527 32.01658949 28.00312719 34.28515625 33.23828125 C34.28515625 33.89828125 34.28515625 34.55828125 34.28515625 35.23828125 C34.94515625 35.23828125 35.60515625 35.23828125 36.28515625 35.23828125 C38.24868907 42.63996756 38.60647323 49.55287786 38.62109375 57.19140625 C38.63107895 59.01898468 38.63107895 59.01898468 38.64126587 60.88348389 C38.65134577 63.44509377 38.65608434 66.00672968 38.65576172 68.56835938 C38.6601582 72.49001745 38.69659316 76.41057015 38.734375 80.33203125 C38.74023939 82.82681908 38.74421131 85.32161224 38.74609375 87.81640625 C38.76046478 88.98729797 38.77483582 90.1581897 38.78964233 91.36456299 C38.74399379 99.46370606 38.74399379 99.46370606 36.38134766 103.45214844 C33.6500027 105.77948593 32.6027922 106.20232246 28.97265625 106.61328125 C25.28515625 106.23828125 25.28515625 106.23828125 22.58520508 104.1965332 C19.7627949 100.56643617 19.63349557 97.93777661 19.796875 93.53125 C19.80394974 92.80585526 19.81102448 92.08046051 19.8183136 91.33308411 C19.84617219 89.02957422 19.90888434 86.72854874 19.97265625 84.42578125 C19.99775062 82.85875922 20.02056181 81.29169885 20.04101562 79.72460938 C20.09596944 75.89488469 20.18217399 72.06700328 20.28515625 68.23828125 C17.64515625 68.23828125 15.00515625 68.23828125 12.28515625 68.23828125 C12.29625931 68.80124908 12.30736237 69.36421692 12.31880188 69.94424438 C12.42963102 75.8166717 12.50492053 81.68880079 12.55981445 87.56201172 C12.58492059 89.75223869 12.61901262 91.94238219 12.66235352 94.13232422 C12.72317532 97.28504047 12.75140548 100.43664678 12.7734375 103.58984375 C12.79924393 104.56506989 12.82505035 105.54029602 12.85163879 106.54507446 C12.85349446 111.06808834 12.79368469 114.23592668 9.87963867 117.84130859 C6.84040402 120.64917589 6.06390103 121.15012146 1.97265625 121.61328125 C-2.62082562 121.1461475 -3.8293236 119.71787907 -6.71484375 116.23828125 C-7.04484375 115.90828125 -7.37484375 115.57828125 -7.71484375 115.23828125 C-7.8078019 113.79538338 -7.83230888 112.3479834 -7.82836914 110.90209961 C-7.82825584 109.52078102 -7.82825584 109.52078102 -7.82814026 108.11155701 C-7.82297897 107.11052444 -7.81781769 106.10949188 -7.8125 105.078125 C-7.81108505 104.05852188 -7.8096701 103.03891876 -7.80821228 101.98841858 C-7.80259472 98.71751018 -7.79003925 95.44666912 -7.77734375 92.17578125 C-7.77233101 89.96419369 -7.76776771 87.75260507 -7.76367188 85.54101562 C-7.75261959 80.10674768 -7.73586438 74.67251928 -7.71484375 69.23828125 C-10.35484375 69.23828125 -12.99484375 69.23828125 -15.71484375 69.23828125 C-15.70374069 69.91400177 -15.69263763 70.58972229 -15.68119812 71.28591919 C-15.57048064 78.32622037 -15.49512432 85.36627378 -15.44018555 92.40722656 C-15.41505946 95.03395637 -15.3809529 97.66061639 -15.33764648 100.28710938 C-15.27691569 104.06527945 -15.2486136 107.84252421 -15.2265625 111.62109375 C-15.20075607 112.7931839 -15.17494965 113.96527405 -15.14836121 115.17288208 C-15.14523663 124.2795742 -15.14523663 124.2795742 -18.08911133 127.97705078 C-20.9127523 130.4087163 -22.04086061 131.05716843 -25.71484375 130.98828125 C-26.95234375 131.01148438 -26.95234375 131.01148438 -28.21484375 131.03515625 C-31.15182532 130.09899338 -32.74439287 128.73963342 -34.65634155 126.33789062 C-36.97090083 121.74680866 -36.31159593 116.4208756 -36.203125 111.40234375 C-36.19605026 110.16785492 -36.18897552 108.93336609 -36.1816864 107.66146851 C-36.1537531 103.72811671 -36.09101044 99.79620105 -36.02734375 95.86328125 C-35.99943956 93.19272914 -35.97944708 90.52219054 -35.95898438 87.8515625 C-35.90392942 81.31331412 -35.82031082 74.7759003 -35.71484375 68.23828125 C-38.35484375 68.23828125 -40.99484375 68.23828125 -43.71484375 68.23828125 C-43.69818916 69.06394089 -43.69818916 69.06394089 -43.68119812 69.90628052 C-43.57035376 75.64894338 -43.4950734 81.39130111 -43.44018555 87.13476562 C-43.41508212 89.27649281 -43.38099207 91.41813466 -43.33764648 93.55957031 C-43.27681225 96.64279255 -43.24859194 99.72487968 -43.2265625 102.80859375 C-43.18785286 104.23862228 -43.18785286 104.23862228 -43.14836121 105.69754028 C-43.14648358 110.17454509 -43.23819003 113.26222086 -46.12036133 116.82763672 C-50.44197388 120.84303169 -53.01138153 120.33027258 -58.71484375 120.23828125 C-59.04484375 119.24828125 -59.37484375 118.25828125 -59.71484375 117.23828125 C-60.37484375 117.23828125 -61.03484375 117.23828125 -61.71484375 117.23828125 C-64.11288141 113.64122475 -63.96788302 112.02644902 -63.97363281 107.75073242 C-63.97713745 107.0966893 -63.98064209 106.44264618 -63.98425293 105.76878357 C-63.99305616 103.60616442 -63.9872242 101.4438725 -63.98046875 99.28125 C-63.9818163 97.77533404 -63.98375758 96.2694185 -63.98626709 94.76350403 C-63.98921684 91.60523339 -63.98492735 88.44707585 -63.97558594 85.28881836 C-63.96422077 81.25043009 -63.97073303 77.21230854 -63.98273087 73.17393017 C-63.9899786 70.06230177 -63.98764768 66.95073595 -63.98247528 63.83910561 C-63.98114531 62.35083293 -63.98276356 60.8625545 -63.98743439 59.37428856 C-63.99254437 57.28737874 -63.98472602 55.20089219 -63.97363281 53.11401367 C-63.97204163 51.92837326 -63.97045044 50.74273285 -63.96881104 49.52116394 C-63.70614296 46.1258113 -62.81528115 43.44335133 -61.71484375 40.23828125 C-61.79549331 35.8959738 -61.79549331 35.8959738 -63.71484375 32.23828125 C-65.87460676 32.14069476 -68.03726917 32.10622408 -70.19921875 32.09765625 C-71.54038144 32.07931931 -72.88152773 32.05974818 -74.22265625 32.0390625 C-76.34044848 32.01015233 -78.45719331 31.98828302 -80.57519531 31.98779297 C-82.61748503 31.98444495 -84.65735183 31.94981449 -86.69921875 31.91015625 C-87.92350586 31.90081055 -89.14779297 31.89146484 -90.40917969 31.88183594 C-94.56688057 31.07240466 -96.02856451 29.42599928 -98.71484375 26.23828125 C-99.04484375 25.90828125 -99.37484375 25.57828125 -99.71484375 25.23828125 C-99.98828125 23.1640625 -99.98828125 23.1640625 -100.08984375 20.55078125 C-100.16332031 19.27654297 -100.16332031 19.27654297 -100.23828125 17.9765625 C-99.5103825 14.16867426 -97.70726993 11.61750721 -94.71484375 9.23828125 C-91.66432694 8.70170574 -89.40784741 8.53350092 -86.37890625 8.64453125 C-85.58132904 8.64505493 -84.78375183 8.64557861 -83.96200562 8.64611816 C-80.56576967 8.64927255 -77.171855 8.72195798 -73.77636719 8.78857422 C-71.28925684 8.82733065 -68.80377483 8.83040198 -66.31640625 8.83203125 C-65.55889069 8.85994751 -64.80137512 8.88786377 -64.02090454 8.91662598 C-58.65157037 8.91513244 -56.05376705 7.47462623 -52.24620056 3.70843506 C-49.99497426 1.54718244 -47.44976284 0.329863 -44.65234375 -1.01171875 C-43.67136719 -1.49125 -42.69039063 -1.97078125 -41.6796875 -2.46484375 C-27.62997542 -8.61043586 -13.2085048 -7.56535188 0 0 Z " fill="#AF898B" transform="translate(351.71484375,561.76171875)"/>
<path d="M0 0 C0.72509766 -0.00386719 1.45019531 -0.00773438 2.19726562 -0.01171875 C9.91152777 0.00214336 17.15328554 0.47517775 23.5625 5.125 C26.14110692 7.9665237 28.33527465 11.00688451 30.5625 14.125 C33.30318111 16.86568111 34.91520527 16.40592003 38.75 16.46875 C40.00683594 16.49839844 41.26367188 16.52804687 42.55859375 16.55859375 C43.89321134 16.58177893 45.22784769 16.60390776 46.5625 16.625 C66.34808789 16.96101898 66.34808789 16.96101898 71.5625 19.125 C74.26189324 21.96057339 74.5519428 23.01414937 74.9375 27.0625 C74.79870151 30.7822995 73.90243414 33.15508359 71.5625 36.125 C68.67603917 37.56823041 66.13196922 37.27138244 62.91015625 37.30078125 C61.56313534 37.32397526 60.21613007 37.34809243 58.86914062 37.37304688 C56.74476592 37.40819504 54.62096832 37.43752543 52.49633789 37.45092773 C50.44606761 37.46639339 48.39748194 37.50658088 46.34765625 37.55078125 C44.50506226 37.57265503 44.50506226 37.57265503 42.62524414 37.5949707 C39.50488547 37.84669437 39.50488547 37.84669437 37.62280273 39.93823242 C35.65332884 44.00007393 37.19754444 48.03013332 38.5625 52.125 C38.68736393 54.35176287 38.75262673 56.58201736 38.78710938 58.81201172 C38.80419449 59.82474655 38.80419449 59.82474655 38.82162476 60.85794067 C38.93199956 67.89935349 38.97964683 74.94179174 39.02246094 81.98388672 C39.04476585 85.32490175 39.08658065 88.66480487 39.14550781 92.00537109 C39.21656649 96.04196224 39.25328626 100.07750443 39.26557922 104.11468887 C39.27598136 105.65136621 39.29841017 107.18801167 39.33317566 108.7243309 C39.59014665 120.6959845 39.59014665 120.6959845 37.08276367 124.18267822 C34.17579904 126.37120069 31.49432806 127.13675378 27.9375 127.75 C23.68856077 126.9631594 22.24444434 125.43799007 19.5625 122.125 C18.37554582 119.75109164 18.44174167 118.32255049 18.44897461 115.67529297 C18.44908791 114.29408768 18.44908791 114.29408768 18.44920349 112.88497925 C18.45436478 111.88910797 18.45952606 110.89323669 18.46484375 109.8671875 C18.4662587 108.84899933 18.46767365 107.83081116 18.46913147 106.7817688 C18.474741 103.52114965 18.48729512 100.26059849 18.5 97 C18.50501377 94.79296974 18.50957689 92.58593841 18.51367188 90.37890625 C18.52471353 84.96091119 18.54198457 79.54296714 18.5625 74.125 C15.5925 74.125 12.6225 74.125 9.5625 74.125 C9.57360306 74.82577667 9.58470612 75.52655334 9.59614563 76.24856567 C9.6965381 82.86883766 9.77256065 89.48889571 9.82156086 96.10975838 C9.84760024 99.51328256 9.88289092 102.91617519 9.93969727 106.31933594 C10.0046664 110.23624989 10.02872753 114.15291258 10.05078125 118.0703125 C10.07658768 119.28615021 10.1023941 120.50198792 10.12898254 121.75466919 C10.132107 131.192287 10.132107 131.192287 7.17675781 134.89331055 C4.48737244 137.18913345 3.47509661 137.92732928 0 137.8125 C-1.11568359 137.81830078 -1.11568359 137.81830078 -2.25390625 137.82421875 C-5.50117197 136.78439663 -6.55868834 134.91582785 -8.4375 132.125 C-8.95648193 129.35978699 -8.95648193 129.35978699 -8.98339844 126.32495117 C-9.00311707 125.18414597 -9.02283569 124.04334076 -9.04315186 122.8679657 C-9.04438049 121.64696671 -9.04560913 120.42596771 -9.046875 119.16796875 C-9.06341125 117.90986893 -9.07994751 116.6517691 -9.09698486 115.35554504 C-9.13728497 112.02303909 -9.16063536 108.69129657 -9.17572021 105.35864258 C-9.19532599 101.95313032 -9.23729186 98.54790043 -9.27734375 95.14257812 C-9.35129231 88.47012104 -9.40289609 81.79777085 -9.4375 75.125 C-12.4075 74.795 -15.3775 74.465 -18.4375 74.125 C-18.41131592 75.55287842 -18.38513184 76.98075684 -18.3581543 78.4519043 C-18.26759581 83.75382799 -18.21022929 89.05568343 -18.1628418 94.3581543 C-18.13771072 96.65221658 -18.10360031 98.9461989 -18.06030273 101.23999023 C-17.99959168 104.53910049 -17.97127563 107.83715146 -17.94921875 111.13671875 C-17.92341232 112.16085373 -17.8976059 113.18498871 -17.87101746 114.24015808 C-17.86821358 121.37221011 -17.86821358 121.37221011 -20.82104492 125.27685547 C-23.57957711 127.22535679 -24.7434886 127.73928583 -28.0625 127.5625 C-28.81789063 127.54058594 -29.57328125 127.51867187 -30.3515625 127.49609375 C-32.4375 127.125 -32.4375 127.125 -35.4375 125.125 C-37.32351229 122.17905931 -37.68358323 119.91214817 -37.66455078 116.44824219 C-37.66439972 115.52758972 -37.66424866 114.60693726 -37.66409302 113.65838623 C-37.65377045 112.67283752 -37.64344788 111.68728882 -37.6328125 110.671875 C-37.6299826 109.65651672 -37.62715271 108.64115845 -37.62423706 107.59503174 C-37.61305001 104.35490084 -37.58794791 101.11504724 -37.5625 97.875 C-37.5524683 95.67708733 -37.54334278 93.47917032 -37.53515625 91.28125 C-37.51311551 85.89573886 -37.47965251 80.51038924 -37.4375 75.125 C-40.0775 75.125 -42.7175 75.125 -45.4375 75.125 C-45.41655273 76.0629541 -45.39560547 77.0009082 -45.37402344 77.96728516 C-45.30560627 81.46738625 -45.25558414 84.96677066 -45.21777344 88.46728516 C-45.19773209 89.97846736 -45.17049095 91.48957272 -45.13574219 93.00048828 C-45.08688891 95.18020643 -45.06445776 97.35889431 -45.046875 99.5390625 C-45.02592773 100.8482666 -45.00498047 102.1574707 -44.98339844 103.50634766 C-45.51253327 107.72292642 -46.75660311 109.86736975 -49.4375 113.125 C-52.49470961 114.0776868 -55.30848843 113.71168967 -58.4375 113.125 C-61.72681514 111.39810955 -62.2515267 110.6829199 -63.4375 107.125 C-63.54557171 105.30245938 -63.59630251 103.47628605 -63.61450195 101.65063477 C-63.62733719 100.52839005 -63.64017242 99.40614532 -63.65339661 98.24989319 C-63.66078354 97.0343425 -63.66817047 95.81879181 -63.67578125 94.56640625 C-63.683853 93.31174057 -63.69192474 92.05707489 -63.70024109 90.76438904 C-63.71408752 88.10208445 -63.72510013 85.43990385 -63.73266602 82.77758789 C-63.7414819 80.06674414 -63.762249 77.35642037 -63.79418945 74.64575195 C-63.83709299 70.72331402 -63.8530712 66.80155045 -63.86328125 62.87890625 C-63.88078934 61.68157364 -63.89829742 60.48424103 -63.91633606 59.25062561 C-63.89070659 49.17065769 -62.05698224 39.06837869 -55.4375 31.125 C-54.7775 31.125 -54.1175 31.125 -53.4375 31.125 C-52.7775 29.805 -52.1175 28.485 -51.4375 27.125 C-50.7775 27.125 -50.1175 27.125 -49.4375 27.125 C-49.4375 26.135 -49.4375 25.145 -49.4375 24.125 C-48.54546875 23.83367188 -47.6534375 23.54234375 -46.734375 23.2421875 C-37.96845656 20.24582518 -37.96845656 20.24582518 -32.4375 13.125 C-29.92935344 10.60159088 -27.31046418 8.22686557 -24.4375 6.125 C-23.7775 6.125 -23.1175 6.125 -22.4375 6.125 C-22.4375 5.465 -22.4375 4.805 -22.4375 4.125 C-14.81582249 1.10261064 -8.17636214 -0.04337593 0 0 Z " fill="#93A5AC" transform="translate(697.4375,554.875)"/>
<path d="M0 0 C3.68750651 2.09162432 5.01381324 6.06097759 6.59863281 9.83398438 C8.45601039 14.22414955 10.46979058 17.12745231 14.12109375 20.203125 C19.96397568 22.24813368 25.73060706 22.44403896 31.87109375 22.578125 C32.60424805 22.60430908 33.33740234 22.63049316 34.09277344 22.6574707 C37.74388929 22.66872928 39.88497571 22.35230284 42.99609375 20.38671875 C47.86435195 15.38422549 49.19305032 11.09716189 50.12109375 4.203125 C51.55859375 2.265625 51.55859375 2.265625 53.12109375 1.203125 C53.78109375 1.203125 54.44109375 1.203125 55.12109375 1.203125 C55.18620881 4.53846316 55.16568718 7.86753676 55.12109375 11.203125 C55.13269531 12.58757812 55.13269531 12.58757812 55.14453125 14 C54.90495548 21.709984 52.29944172 25.65843119 47.12109375 31.203125 C45.70020732 32.74090337 44.28350857 34.28256202 42.87109375 35.828125 C42.2265625 36.50101562 41.58203125 37.17390625 40.91796875 37.8671875 C36.02350623 44.22998878 35.01155638 51.74371443 33.55859375 59.453125 C33.35041016 60.52175781 33.14222656 61.59039062 32.92773438 62.69140625 C31.70860743 68.97636806 31.70860743 68.97636806 30.62939453 75.28637695 C30.47325684 76.25019287 30.31711914 77.21400879 30.15625 78.20703125 C30.02742432 79.0585376 29.89859863 79.91004395 29.76586914 80.78735352 C28.66676017 84.90537067 26.19770775 88.28535792 23.12109375 91.203125 C22.46109375 91.203125 21.80109375 91.203125 21.12109375 91.203125 C21.03859375 91.945625 20.95609375 92.688125 20.87109375 93.453125 C19.96671776 96.76917029 18.74964115 98.03843891 16.12109375 100.203125 C10.71315293 102.00577194 4.7398658 101.50870367 -0.9296875 101.55322266 C-2.47573901 101.56978749 -4.02171376 101.59708521 -5.56738281 101.63525391 C-7.80443746 101.69015388 -10.03970537 101.71191117 -12.27734375 101.7265625 C-12.96396088 101.74923187 -13.650578 101.77190125 -14.35800171 101.79525757 C-18.21958021 101.77834206 -19.747748 101.31150979 -22.76416016 98.81884766 C-24.75067524 96.36173353 -26.2660342 93.91275004 -27.87890625 91.203125 C-28.89438191 90.13550329 -29.91575888 89.07347869 -30.94140625 88.015625 C-33.28048625 85.31726959 -34.30028847 83.36361659 -34.88671875 79.84765625 C-35.12225464 78.52689087 -35.12225464 78.52689087 -35.36254883 77.17944336 C-35.53294678 76.1972583 -35.70334473 75.21507324 -35.87890625 74.203125 C-36.785104 69.48832051 -37.73593093 64.78315491 -38.69140625 60.078125 C-38.92666016 58.85480469 -39.16191406 57.63148438 -39.40429688 56.37109375 C-41.55069986 45.94892702 -45.27723928 39.45747452 -52.56640625 31.890625 C-61.59737129 22.37992742 -61.10037608 13.92533613 -60.87890625 1.203125 C-57.00390625 3.078125 -57.00390625 3.078125 -55.87890625 4.203125 C-55.6344716 5.57549305 -55.40845329 6.95115988 -55.19140625 8.328125 C-54.11594866 13.46733457 -51.72048372 16.69559774 -47.87890625 20.203125 C-41.32933607 23.47791009 -29.45222524 21.95712809 -22.47265625 20.484375 C-17.73185844 18.71371558 -14.35379296 16.75691654 -11.87890625 12.203125 C-11.05461478 9.62007301 -10.32374116 7.04601247 -9.6875 4.41015625 C-8.06473417 -0.01913212 -4.34223678 -0.60552293 0 0 Z " fill="#A8A7A8" transform="translate(514.87890625,347.796875)"/>
<path d="M0 0 C1.36125 0.3403125 1.36125 0.3403125 2.75 0.6875 C2.75 1.3475 2.75 2.0075 2.75 2.6875 C3.925625 3.1515625 3.925625 3.1515625 5.125 3.625 C7.75 4.6875 7.75 4.6875 9.75 5.6875 C9.75 6.3475 9.75 7.0075 9.75 7.6875 C10.35714844 7.94015625 10.96429687 8.1928125 11.58984375 8.453125 C14.05304384 9.86066791 14.8885803 11.01260704 16.3125 13.4375 C16.70566406 14.09234375 17.09882812 14.7471875 17.50390625 15.421875 C17.91511719 16.16953125 18.32632813 16.9171875 18.75 17.6875 C19.28625 18.50347656 19.8225 19.31945312 20.375 20.16015625 C22.81444311 26.41815945 22.18563119 33.12513081 22.18945312 39.77148438 C22.30428276 46.59394879 23.1661399 51.98062201 25.89477539 58.26098633 C26.82045852 60.88741071 26.90505621 62.9239236 26.75 65.6875 C24.77 66.6775 22.79 67.6675 20.75 68.6875 C20.316875 68.213125 19.88375 67.73875 19.4375 67.25 C15.64192844 63.73558189 10.69502092 64.525632 5.84399414 64.51049805 C4.9331456 64.50392685 4.02229706 64.49735565 3.08384705 64.49058533 C0.06761597 64.47086249 -2.94856543 64.45919399 -5.96484375 64.44921875 C-6.99416079 64.44514322 -8.02347782 64.4410677 -9.08398628 64.43686867 C-14.52856369 64.41601554 -19.97311591 64.40170867 -25.41772461 64.39233398 C-31.04821949 64.38125133 -36.67832115 64.3468278 -42.30867672 64.30716228 C-46.63319143 64.28105923 -50.95761138 64.27264793 -55.28219795 64.26905251 C-57.35827869 64.26417278 -59.43435481 64.25251961 -61.51035881 64.23401451 C-64.41209324 64.20975004 -67.31279548 64.21056447 -70.21459961 64.2175293 C-71.07447479 64.20471924 -71.93434998 64.19190918 -72.82028198 64.17871094 C-77.70524758 64.19731366 -77.70524758 64.19731366 -81.81471252 66.71687317 C-82.52517982 67.69233345 -82.52517982 67.69233345 -83.25 68.6875 C-88.125 66.8125 -88.125 66.8125 -89.25 65.6875 C-89.68494682 59.48950786 -88.69149915 55.38433136 -86.25 49.6875 C-85.59 49.6875 -84.93 49.6875 -84.25 49.6875 C-84.27094727 49.0483667 -84.29189453 48.4092334 -84.31347656 47.75073242 C-84.98537763 24.16828084 -84.98537763 24.16828084 -80.25 15.6875 C-79.693125 14.635625 -79.13625 13.58375 -78.5625 12.5 C-69.62842095 1.63422819 -69.62842095 1.63422819 -63.0625 0.5 C-58.88981245 0.70521414 -56.77023995 1.49712847 -53.25 3.6875 C-52.30125 4.203125 -51.3525 4.71875 -50.375 5.25 C-49.67375 5.724375 -48.9725 6.19875 -48.25 6.6875 C-48.25 7.3475 -48.25 8.0075 -48.25 8.6875 C-47.30125 8.831875 -46.3525 8.97625 -45.375 9.125 C-42.25 9.6875 -42.25 9.6875 -40.25 10.6875 C-26.69938713 12.21944574 -15.83269737 9.49395218 -5.00390625 0.90625 C-3.25 -0.3125 -3.25 -0.3125 0 0 Z " fill="#AAAAAA" transform="translate(543.25,273.3125)"/>
<path d="M0 0 C7.83664682 4.63074585 11.51269262 8.96214057 14.0390625 17.76171875 C15.04869148 23.81100834 14.72100604 28.3891215 11.4140625 33.63671875 C7.83675487 38.35302763 3.6667845 42.62674268 -1.9609375 44.76171875 C-4.81772649 44.9801624 -7.54431333 45.08640545 -10.3984375 45.07421875 C-11.52475586 45.09838867 -11.52475586 45.09838867 -12.67382812 45.12304688 C-18.48987318 45.12816213 -21.73561346 43.93539117 -25.98046875 39.7890625 C-26.57214844 39.09941406 -27.16382813 38.40976562 -27.7734375 37.69921875 C-28.37800781 37.00699219 -28.98257813 36.31476562 -29.60546875 35.6015625 C-30.9609375 33.76171875 -30.9609375 33.76171875 -30.9609375 31.76171875 C-31.9509375 31.43171875 -32.9409375 31.10171875 -33.9609375 30.76171875 C-34.67972611 20.77854361 -34.70416688 13.7365882 -27.9609375 5.76171875 C-21.00062052 -1.76970116 -9.46101173 -3.95665002 0 0 Z " fill="#0E92CD" transform="translate(700.9609375,563.23828125)"/>
<path d="M0 0 C6.20137707 3.63446277 11.25504404 9.25724172 13.45703125 16.12109375 C14.31512027 22.95280249 14.60510529 29.31032107 10.76953125 35.24609375 C6.14461542 41.08126793 0.66606507 45.4818425 -6.8984375 46.41015625 C-12.73301046 46.60916494 -18.46677112 46.19233002 -23.54296875 43.12109375 C-27.89316908 38.74094368 -33.06107458 33.22428083 -33.80859375 26.859375 C-33.7124736 11.93672095 -33.7124736 11.93672095 -27.79296875 5.74609375 C-20.22207458 -1.49692705 -10.00220511 -3.45698333 0 0 Z " fill="#E7201D" transform="translate(342.54296875,562.87890625)"/>
<path d="M0 0 C0.66 0 1.32 0 2 0 C2 2.31 2 4.62 2 7 C2.9075 6.938125 3.815 6.87625 4.75 6.8125 C8 7 8 7 9.9375 8.5625 C12.06936089 10.36199415 12.06936089 10.36199415 15.5625 9.8125 C19.0949807 9.18832556 19.0949807 9.18832556 22 7 C24.6875 6.875 24.6875 6.875 27 7 C27 4.69 27 2.38 27 0 C32.93792999 2.6492303 38.40757581 8.00501906 41 14 C40.67 15.32 40.34 16.64 40 18 C37.69 15.03 35.38 12.06 33 9 C31.02 9.99 31.02 9.99 29 11 C27.65455075 11.56297109 26.30018395 12.10513214 24.9375 12.625 C24.26589844 12.88539063 23.59429688 13.14578125 22.90234375 13.4140625 C21 14 21 14 18 14 C18 14.66 18 15.32 18 16 C13.19117153 16.33549966 11.0003424 15.57164869 7 13 C5.66195346 12.38058367 4.30598181 11.79891045 2.9375 11.25 C2.28652344 10.98703125 1.63554687 10.7240625 0.96484375 10.453125 C-1.45701387 9.89460515 -2.70629755 10.04622921 -5 11 C-6.54264802 12.6062744 -6.54264802 12.6062744 -7.75 14.5625 C-8.17796875 15.20316406 -8.6059375 15.84382813 -9.046875 16.50390625 C-9.36140625 16.99761719 -9.6759375 17.49132812 -10 18 C-10.67578125 16.296875 -10.67578125 16.296875 -11 14 C-9.85546875 11.640625 -9.85546875 11.640625 -8.1875 9.25 C-7.37345703 8.05117188 -7.37345703 8.05117188 -6.54296875 6.828125 C-6.03378906 6.22484375 -5.52460938 5.6215625 -5 5 C-4.34 5 -3.68 5 -3 5 C-2.690625 4.360625 -2.38125 3.72125 -2.0625 3.0625 C-1 1 -1 1 0 0 Z " fill="#2C2630" transform="translate(497,378)"/>
<path d="M0 0 C3.71599191 -0.20086443 4.77208445 -0.1519437 8 2 C8.56835938 4.92993164 8.56835938 4.92993164 8.84375 8.66015625 C8.89897827 9.32405869 8.95420654 9.98796112 9.0111084 10.67198181 C9.18735841 12.80134201 9.34546179 14.93146145 9.5 17.0625 C10.43578689 29.79072779 10.43578689 29.79072779 14 42 C11.2026437 41.43009384 10.10831373 41.10026757 7.94921875 39.1015625 C5.22640999 34.76907721 4.10307982 30.29596408 2.8125 25.375 C2.29838184 23.4869234 1.78406756 21.59890019 1.26953125 19.7109375 C1.04885986 18.87868652 0.82818848 18.04643555 0.60083008 17.18896484 C0.1217132 15.44342971 -0.42759753 13.71720742 -1 12 C-1.09287771 10.31454276 -1.12997204 8.625507 -1.125 6.9375 C-1.12757813 6.05964844 -1.13015625 5.18179687 -1.1328125 4.27734375 C-1 2 -1 2 0 0 Z " fill="#ACABAD" transform="translate(439,339)"/>
<path d="M0 0 C2.375 0.75 2.375 0.75 3.375 1.75 C3.91645892 9.59295045 2.27745596 16.45241183 0.25 24 C-0.03359375 25.15757812 -0.3171875 26.31515625 -0.609375 27.5078125 C-2.37049821 34.13882424 -3.68479821 38.08154677 -9.625 41.75 C-10.68142251 39.00330147 -10.66451053 37.86564792 -9.69506836 35.02807617 C-8.56984131 31.58102539 -8.17678679 28.53455535 -7.87890625 24.92578125 C-7.76353516 23.65025391 -7.64816406 22.37472656 -7.52929688 21.06054688 C-7.35553321 19.05302193 -7.18610493 17.045301 -7.02319336 15.03686523 C-6.86178779 13.08217007 -6.68308489 11.12892742 -6.50390625 9.17578125 C-6.35804077 7.43421753 -6.35804077 7.43421753 -6.20922852 5.6574707 C-5.39081035 1.58453217 -4.33593302 -0.412946 0 0 Z " fill="#A9A7A9" transform="translate(582.625,339.25)"/>
<path d="M0 0 C1.22396484 -0.01160156 2.44792969 -0.02320313 3.70898438 -0.03515625 C10.44861863 -0.0134038 16.98528274 0.1339433 23.0625 3.375 C23.5575 4.365 23.5575 4.365 24.0625 5.375 C21.7104994 6.5510003 20.32515599 6.49584541 17.70458984 6.48852539 C16.35341568 6.48841209 16.35341568 6.48841209 14.97494507 6.48829651 C14.00094757 6.48313522 13.02695007 6.47797394 12.0234375 6.47265625 C11.02744537 6.4712413 10.03145325 6.46982635 9.00527954 6.46836853 C5.81598947 6.46275936 2.62676894 6.4502053 -0.5625 6.4375 C-2.72135315 6.43248618 -4.88020741 6.42792307 -7.0390625 6.42382812 C-12.3385655 6.41278695 -17.63802778 6.39603988 -22.9375 6.375 C-21.9375 3.375 -21.9375 3.375 -18.74609375 1.7109375 C-12.64896522 -0.36716601 -6.36923813 -0.06018178 0 0 Z " fill="#2C2530" transform="translate(510.9375,404.625)"/>
<path d="M0 0 C0.33 0 0.66 0 1 0 C0.99777939 0.55852661 0.99555878 1.11705322 0.99327087 1.69250488 C0.97105807 7.53295244 0.95602693 13.3733879 0.94506836 19.21386719 C0.94005576 21.39030444 0.93324397 23.56673836 0.92456055 25.74316406 C0.91235996 28.88086779 0.90674082 32.01852679 0.90234375 35.15625 C0.89718246 36.12115356 0.89202118 37.08605713 0.88670349 38.0802002 C0.88626006 43.48343812 1.20525867 48.65405832 2 54 C3.43534841 54.2226746 4.87345525 54.42761906 6.3125 54.625 C7.11300781 54.74101563 7.91351563 54.85703125 8.73828125 54.9765625 C11.28723215 55.21533407 11.28723215 55.21533407 14 53 C14.33763588 50.02705026 14.48913038 47.25257498 14.51171875 44.2734375 C14.52966995 43.41062164 14.54762115 42.54780579 14.56611633 41.65884399 C14.6203852 38.89761269 14.65416757 36.13655582 14.6875 33.375 C14.7206585 31.50518397 14.75514678 29.635391 14.79101562 27.765625 C14.87612096 23.17720891 14.94285254 18.58884604 15 14 C15.66 13.67 16.32 13.34 17 13 C17.09903517 18.60500964 17.17154712 24.20950762 17.21972656 29.81518555 C17.23981546 31.7212003 17.26709194 33.62715362 17.30175781 35.53295898 C17.35039642 38.27603326 17.37299579 41.01829125 17.390625 43.76171875 C17.41127014 44.61086349 17.43191528 45.46000824 17.45318604 46.33488464 C17.45472573 50.41417313 17.31755845 52.48502356 15.12792969 56.03588867 C12.58316048 58.38474919 11.42446495 58.67720221 8 58.625 C7.154375 58.63789062 6.30875 58.65078125 5.4375 58.6640625 C1.79523305 57.67177824 0.94414109 56.23466382 -1 53 C-1.56127461 49.47693879 -1.48916333 46.00161237 -1.42578125 42.44140625 C-1.42084908 40.90854225 -1.42084908 40.90854225 -1.41581726 39.3447113 C-1.40008702 36.08354241 -1.35604286 32.82340323 -1.3125 29.5625 C-1.30100639 27.37175318 -1.2912219 25.18099667 -1.28320312 22.99023438 C-1.26977413 20.89061455 -1.25484981 18.79100365 -1.23828125 16.69140625 C-1.23089432 15.70999161 -1.22350739 14.72857697 -1.21589661 13.71742249 C-1.15097064 9.04150451 -0.95670822 4.59865134 0 0 Z " fill="#AC999B" transform="translate(318,634)"/>
<path d="M0 0 C3.83724037 1.50748729 5.68343703 3.62618212 8 7 C8.72265625 9.98046875 8.72265625 9.98046875 9.0625 13.1875 C9.70525956 18.30062338 10.73131394 22.91627396 12.4140625 27.78125 C13.06954902 30.26335895 13.09900893 32.44376934 13 35 C11.80200878 33.8362371 10.60902615 32.66688857 9.44140625 31.47265625 C8.06447553 30.06587337 6.6578431 28.68834667 5.25 27.3125 C2.51943545 23.98648524 2.39514662 20.85917833 2.1796875 16.6640625 C1.93908585 13.09688149 1.17956133 9.70985881 0.40234375 6.2265625 C0 4 0 4 0 0 Z " fill="#A1A1A4" transform="translate(460,387)"/>
<path d="M0 0 C-0.2108279 2.03800304 -0.42952338 4.07534898 -0.67578125 6.109375 C-0.90775254 8.17755277 -1.08669612 10.25195078 -1.23046875 12.328125 C-2.08156988 21.41988762 -4.761625 27.28175 -11 34 C-11.33 34 -11.66 34 -12 34 C-10.38625205 0 -10.38625205 0 0 0 Z " fill="#A6A7A8" transform="translate(564,387)"/>
<path d="M0 0 C0.89267578 0.0515625 1.78535156 0.103125 2.70507812 0.15625 C4.09823242 0.25292969 4.09823242 0.25292969 5.51953125 0.3515625 C6.93008789 0.43664062 6.93008789 0.43664062 8.36914062 0.5234375 C10.69088034 0.66486327 13.01153055 0.8162658 15.33203125 0.9765625 C15.33203125 1.3065625 15.33203125 1.6365625 15.33203125 1.9765625 C11.12423672 2.46053627 6.91570698 2.93781761 2.70703125 3.4140625 C1.5365625 3.54876953 0.36609375 3.68347656 -0.83984375 3.82226562 C-16.78813929 5.61863957 -32.50620885 6.21169974 -48.54296875 6.2265625 C-49.59556885 6.22856659 -50.64816895 6.23057068 -51.73266602 6.2326355 C-69.88075693 6.24106735 -87.66161304 5.24563134 -105.66796875 2.9765625 C-106.95767578 2.81776611 -106.95767578 2.81776611 -108.2734375 2.65576172 C-110.07210388 2.4332827 -111.87014367 2.2057407 -113.66796875 1.9765625 C-113.66796875 1.6465625 -113.66796875 1.3165625 -113.66796875 0.9765625 C-106.62505838 0.847816 -99.73710805 1.21882243 -92.73046875 1.9140625 C-91.81845703 2.00107422 -90.90644531 2.08808594 -89.96679688 2.17773438 C-89.05478516 2.26474609 -88.14277344 2.35175781 -87.203125 2.44140625 C-86.28088135 2.52914307 -85.3586377 2.61687988 -84.40844727 2.70727539 C-82.65255462 2.87981433 -80.89764992 3.06293181 -79.14428711 3.25952148 C-70.47670108 4.17592913 -61.81045684 4.17402219 -53.10546875 4.1640625 C-52.29781067 4.16412292 -51.49015259 4.16418335 -50.65802002 4.16424561 C-39.92353104 4.15284878 -29.25130103 3.9063239 -18.54296875 3.1015625 C-16.93699829 2.98397583 -16.93699829 2.98397583 -15.29858398 2.86401367 C-9.73068362 2.38355367 -5.35009945 -0.34077067 0 0 Z " fill="#A9A4A9" transform="translate(561.66796875,955.0234375)"/>
<path d="M0 0 C2.97 0 5.94 0 9 0 C10 1 10 1 10.12025452 3.24623108 C10.1169236 4.73515114 10.1169236 4.73515114 10.11352539 6.25415039 C10.11344986 7.37523697 10.11337433 8.49632355 10.11329651 9.65138245 C10.10813522 10.8711528 10.10297394 12.09092316 10.09765625 13.34765625 C10.0962413 14.58921982 10.09482635 15.83078339 10.09336853 17.10997009 C10.08870591 20.41605491 10.07971497 23.72207146 10.06866455 27.02813721 C10.05844827 30.3996115 10.05387045 33.77109283 10.04882812 37.14257812 C10.03777395 43.76173775 10.02101736 50.38086493 10 57 C9.34 56.67 8.68 56.34 8 56 C8 38.18 8 20.36 8 2 C5.69 2 3.38 2 1 2 C1 16.85 1 31.7 1 47 C0.67 47 0.34 47 0 47 C0 31.49 0 15.98 0 0 Z " fill="#4E5562" transform="translate(679,629)"/>
<path d="M0 0 C2.64 0 5.28 0 8 0 C8.04973511 4.42910272 8.08587704 8.85805397 8.10986328 13.28735352 C8.11987124 14.79161413 8.1334818 16.29585553 8.15087891 17.80004883 C8.17535809 19.97221643 8.18653523 22.14412504 8.1953125 24.31640625 C8.20578613 25.62037354 8.21625977 26.92434082 8.22705078 28.26782227 C7.98704289 32.21298432 7.22187181 35.26462372 6 39 C5.67 39 5.34 39 5 39 C4.97084269 34.95834861 4.95314827 30.9167245 4.9375 26.875 C4.92912109 25.73289062 4.92074219 24.59078125 4.91210938 23.4140625 C4.90888672 22.30546875 4.90566406 21.196875 4.90234375 20.0546875 C4.89710693 19.03874512 4.89187012 18.02280273 4.88647461 16.97607422 C5.00355277 13.90686382 5.46892284 11.02185249 6 8 C6.03703069 6.00034285 6.04760556 3.99943335 6 2 C5.01 2.33 4.02 2.66 3 3 C1.73953165 7.81538298 1.92944374 12.50413186 2 17.4375 C2.06637634 25.6832516 1.76173599 33.78413326 1 42 C0.67 42 0.34 42 0 42 C0 28.14 0 14.28 0 0 Z " fill="#441421" transform="translate(308,630)"/>
<path d="M0 0 C14.23273521 -1.04995588 23.83445234 0.38803722 36 8 C33 10 33 10 31 11 C30.67 11.66 30.34 12.32 30 13 C29.2575 12.38125 28.515 11.7625 27.75 11.125 C22.94357777 7.41094646 19.281081 6.64862182 13.25 6.375 C12.55261719 6.33632813 11.85523438 6.29765625 11.13671875 6.2578125 C9.42489182 6.16401376 7.71248318 6.08093826 6 6 C6 5.01 6 4.02 6 3 C4.02 2.34 2.04 1.68 0 1 C0 0.67 0 0.34 0 0 Z " fill="#B07B7D" transform="translate(319,556)"/>
<path d="M0 0 C0 0.33 0 0.66 0 1 C-2.54118387 1.31687886 -5.08285506 1.6284979 -7.625 1.9375 C-8.66527344 2.06801758 -8.66527344 2.06801758 -9.7265625 2.20117188 C-22.23292888 3.70863568 -34.67743994 4.16345298 -47.26000977 4.13037109 C-49.69488683 4.12498366 -52.1295814 4.13036712 -54.56445312 4.13671875 C-73.51479022 4.14779673 -73.51479022 4.14779673 -79 3 C-79.66 2.34 -80.32 1.68 -81 1 C-79.74678955 1.00523682 -78.4935791 1.01047363 -77.20239258 1.01586914 C-72.44409939 1.03430311 -67.68580918 1.04556856 -62.92749023 1.05493164 C-60.88842229 1.05988588 -58.84935775 1.06665114 -56.81030273 1.07543945 C-44.38423126 1.12755966 -32.02488425 0.91886446 -19.6171875 0.22265625 C-13.07910058 -0.12874834 -6.54525954 -0.09048746 0 0 Z " fill="#17101E" transform="translate(559,956)"/>
<path d="M0 0 C1.32 0.33 2.64 0.66 4 1 C3.34 1 2.68 1 2 1 C2 1.66 2 2.32 2 3 C4.61367414 2.55194158 6.84285343 2.0742081 9.25 0.9375 C13.0665384 -0.36359264 17.01127226 -0.72878522 21 0 C21.66 0.99 22.32 1.98 23 3 C21.74896484 3.03867187 21.74896484 3.03867187 20.47265625 3.078125 C8.69645315 3.64618786 8.69645315 3.64618786 -0.8125 9.97265625 C-2.2951043 11.93639416 -3.64511575 13.94768353 -5 16 C-5.66 16.66 -6.32 17.32 -7 18 C-7.66 16.68 -8.32 15.36 -9 14 C-9.66 14 -10.32 14 -11 14 C-9.75928315 8.20998801 -6.80261285 5.19419062 -2 2 C-1.34 2 -0.68 2 0 2 C0 1.34 0 0.68 0 0 Z " fill="#89A7B3" transform="translate(675,559)"/>
<path d="M0 0 C8.25 0 16.5 0 25 0 C24.34 1.32 23.68 2.64 23 4 C22.67 4.99 22.34 5.98 22 7 C19.26843041 7.16262928 16.54657878 7.28110686 13.8125 7.375 C13.04357422 7.42527344 12.27464844 7.47554688 11.48242188 7.52734375 C5.84449331 7.67252646 5.84449331 7.67252646 3.33349609 5.67285156 C0 1.73850309 0 1.73850309 0 0 Z " fill="#1C1322" transform="translate(499,419)"/>
<path d="M0 0 C1.32 0.33 2.64 0.66 4 1 C4.86078544 13.89265303 4.86078544 13.89265303 1.6875 17.75 C-2.31199103 21.09841109 -5.3505898 21.15590103 -10.41796875 21.31640625 C-11.67158203 21.35830078 -12.92519531 21.40019531 -14.21679688 21.44335938 C-15.52712891 21.48267578 -16.83746094 21.52199219 -18.1875 21.5625 C-19.52279978 21.60570992 -20.85808652 21.649325 -22.19335938 21.69335938 C-25.46213297 21.79956502 -28.73098333 21.90160997 -32 22 C-32.99 23.98 -33.98 25.96 -35 28 C-35.33 28 -35.66 28 -36 28 C-35.39833221 21.62232139 -35.39833221 21.62232139 -33.9128418 19.30151367 C-31.02608863 17.3373425 -28.08447314 17.5198113 -24.70703125 17.48828125 C-24.00100266 17.47033005 -23.29497406 17.45237885 -22.56755066 17.43388367 C-20.31592759 17.37976822 -18.06451657 17.34588278 -15.8125 17.3125 C-14.28447569 17.27932781 -12.75647937 17.24483823 -11.22851562 17.20898438 C-7.48583011 17.12404175 -3.74320759 17.05723752 0 17 C2.20933099 11.67796956 3.24012202 7.10030504 1 1.5 C0.505 0.7575 0.505 0.7575 0 0 Z " fill="#283446" transform="translate(769,574)"/>
<path d="M0 0 C2.45906037 0.47565766 4.91720993 0.95536052 7.375 1.4375 C8.07367188 1.57220703 8.77234375 1.70691406 9.4921875 1.84570312 C14.7734375 2.88671875 14.7734375 2.88671875 17 4 C17 4.66 17 5.32 17 6 C17.58531494 6.13736572 18.17062988 6.27473145 18.77368164 6.41625977 C21.50256512 7.13177248 24.09637202 8.13974727 26.72998047 9.14404297 C30.81651433 10.68495367 34.94102199 12.11827447 39.0625 13.5625 C39.92166016 13.86607422 40.78082031 14.16964844 41.66601562 14.48242188 C50.47127056 17.79930476 50.47127056 17.79930476 59.6875 18.9375 C63.38434179 19.00725173 64.35886912 19.54752133 67 22 C67.99 22.66 68.98 23.32 70 24 C64.31636744 23.33538168 58.99244216 22.02609444 53.5 20.4375 C52.59145264 20.17573975 51.68290527 19.91397949 50.74682617 19.64428711 C36.48962254 15.45900983 22.50689863 10.41193885 8.625 5.125 C7.86356689 4.83890869 7.10213379 4.55281738 6.31762695 4.25805664 C1.11867799 2.23735599 1.11867799 2.23735599 0 0 Z " fill="#7D7882" transform="translate(332,923)"/>
<path d="M0 0 C2.49361571 1.20381448 4.68143083 2.45428722 7 4 C10.3002764 4.2774565 10.3002764 4.2774565 14.07421875 4.1953125 C14.7580513 4.1924826 15.44188385 4.18965271 16.1464386 4.18673706 C18.32697165 4.17555684 20.50709145 4.15045691 22.6875 4.125 C24.16731177 4.11496738 25.64712999 4.10584202 27.12695312 4.09765625 C30.751436 4.07562481 34.37567766 4.04111002 38 4 C38 4.66 38 5.32 38 6 C38.969375 6.12375 39.93875 6.2475 40.9375 6.375 C41.948125 6.58125 42.95875 6.7875 44 7 C44.495 7.99 44.495 7.99 45 9 C44.44924805 8.9292627 43.89849609 8.85852539 43.33105469 8.78564453 C38.166483 8.19005448 33.0905357 7.939394 27.890625 7.9296875 C26.01697266 7.91421875 26.01697266 7.91421875 24.10546875 7.8984375 C21.51956723 7.88271773 18.93341901 7.89081479 16.34765625 7.921875 C7.08391332 7.78747873 7.08391332 7.78747873 3.77539062 5.38378906 C2.28831511 3.65351655 1.08355933 2.00347643 0 0 Z " fill="#3A475A" transform="translate(724,565)"/>
<path d="M0 0 C5.93792999 2.6492303 11.40757581 8.00501906 14 14 C13.67 15.32 13.34 16.64 13 18 C9.535 13.545 9.535 13.545 6 9 C4.02 9.99 4.02 9.99 2 11 C0.00889599 11.38290462 -1.99100513 11.72604615 -4 12 C-3.67 11.34 -3.34 10.68 -3 10 C-4.65 10 -6.3 10 -8 10 C-6.8125 8.5 -6.8125 8.5 -5 7 C-2.3125 6.8125 -2.3125 6.8125 0 7 C0 4.69 0 2.38 0 0 Z " fill="#302B36" transform="translate(524,378)"/>
<path d="M0 0 C5.61187471 6.73424965 5.32148707 15.60561545 5 24 C4.34 24 3.68 24 3 24 C2.67 24.66 2.34 25.32 2 26 C1.92652344 24.93458984 1.92652344 24.93458984 1.8515625 23.84765625 C1.73941406 22.46900391 1.73941406 22.46900391 1.625 21.0625 C1.55539062 20.14597656 1.48578125 19.22945313 1.4140625 18.28515625 C1.20910156 17.15400391 1.20910156 17.15400391 1 16 C0.34 15.67 -0.32 15.34 -1 15 C-1.484375 12.12890625 -1.484375 12.12890625 -1.75 8.5625 C-1.84796875 7.38816406 -1.9459375 6.21382813 -2.046875 5.00390625 C-2 2 -2 2 0 0 Z " fill="#201925" transform="translate(472,395)"/>
<path d="M0 0 C0.66 0 1.32 0 2 0 C2.08564209 0.65073486 2.17128418 1.30146973 2.25952148 1.97192383 C2.64914094 4.91919374 3.04326783 7.86584371 3.4375 10.8125 C3.63956055 12.34874023 3.63956055 12.34874023 3.84570312 13.91601562 C3.97783203 14.89892578 4.10996094 15.88183594 4.24609375 16.89453125 C4.36654053 17.80050049 4.4869873 18.70646973 4.61108398 19.63989258 C4.95962872 22.1418344 4.95962872 22.1418344 6 25 C4.10546875 24.71875 4.10546875 24.71875 2 24 C-1.1846081 17.39488691 -3.1015624 10.16160681 -1.0625 2.9375 C-0.711875 1.968125 -0.36125 0.99875 0 0 Z " fill="#AAAAAB" transform="translate(444,352)"/>
<path d="M0 0 C2.64 0 5.28 0 8 0 C8 10.23 8 20.46 8 31 C7.67 31 7.34 31 7 31 C7 21.1 7 11.2 7 1 C5.02 1 3.04 1 1 1 C1.0169693 1.55710159 1.0339386 2.11420319 1.05142212 2.68818665 C1.22577513 8.4789129 1.38566649 14.26990952 1.53710938 20.0612793 C1.59556074 22.22349253 1.65771723 24.38560887 1.72363281 26.54760742 C1.81766033 29.6526526 1.89842119 32.75780076 1.9765625 35.86328125 C2.00875885 36.83211746 2.0409552 37.80095367 2.0741272 38.79914856 C2.09429901 39.6998558 2.11447083 40.60056305 2.13525391 41.52856445 C2.16856308 42.71770195 2.16856308 42.71770195 2.20254517 43.93086243 C2 46 2 46 0 49 C-0.66 49 -1.32 49 -2 49 C-1.67 48.01 -1.34 47.02 -1 46 C-0.88599048 44.48165793 -0.82387323 42.95910409 -0.79467773 41.43676758 C-0.7647599 40.05567558 -0.7647599 40.05567558 -0.73423767 38.64668274 C-0.71752518 37.65597275 -0.70081268 36.66526276 -0.68359375 35.64453125 C-0.66281265 34.62775803 -0.64203156 33.6109848 -0.62062073 32.56340027 C-0.55519952 29.31316937 -0.49627463 26.06285723 -0.4375 22.8125 C-0.39430773 20.61001762 -0.35069321 18.40754347 -0.30664062 16.20507812 C-0.19952573 10.80347147 -0.09774543 5.40178388 0 0 Z " fill="#542934" transform="translate(364,630)"/>
<path d="M0 0 C0 0.99 0 1.98 0 3 C-3.35666845 4.11888948 -6.03714578 4.19122499 -9.57421875 4.28125 C-11.53584961 4.33732422 -11.53584961 4.33732422 -13.53710938 4.39453125 C-14.92056106 4.43015101 -16.30402485 4.46530368 -17.6875 4.5 C-29.38252357 4.75315902 -29.38252357 4.75315902 -41 6 C-40.02197266 4.03588867 -40.02197266 4.03588867 -38 2 C-35.09627451 1.58640677 -32.55554123 1.41876481 -29.6484375 1.42578125 C-28.42648178 1.40453438 -28.42648178 1.40453438 -27.17984009 1.38285828 C-24.57809237 1.34091472 -21.97703848 1.3257071 -19.375 1.3125 C-16.76614265 1.28348605 -14.15746324 1.24899919 -11.54873657 1.21000671 C-9.92510001 1.18744307 -8.30135284 1.17167028 -6.67758179 1.16316223 C-3.039182 1.47247743 -3.039182 1.47247743 0 0 Z " fill="#8A666F" transform="translate(295,569)"/>
<path d="M0 0 C0.71607422 -0.00080566 1.43214844 -0.00161133 2.16992188 -0.00244141 C9.88176083 0.07752006 16.87195347 0.73496364 23.375 5.1875 C25.375 7.9375 25.375 7.9375 26.375 10.1875 C23.90699953 9.03576645 22.32716435 8.13966435 20.375 6.1875 C8.4992926 0.95739048 -6.08772446 2.63598087 -18.625 4.1875 C-18.295 3.5275 -17.965 2.8675 -17.625 2.1875 C-11.72868618 0.29225627 -6.14034865 0.0066454 0 0 Z " fill="#4C697C" transform="translate(697.625,554.8125)"/>
<path d="M0 0 C0.99 0 1.98 0 3 0 C3 13.86 3 27.72 3 42 C2.67 42 2.34 42 2 42 C1.97494385 41.33991943 1.9498877 40.67983887 1.92407227 39.99975586 C1.80728248 36.97884631 1.68493554 33.95818578 1.5625 30.9375 C1.52318359 29.89916016 1.48386719 28.86082031 1.44335938 27.79101562 C1.22305646 22.45290646 0.83148439 17.27538417 0 12 C0 10 0 8 0 6 C-0.185625 5.071875 -0.37125 4.14375 -0.5625 3.1875 C-0.706875 2.465625 -0.85125 1.74375 -1 1 C-0.67 0.67 -0.34 0.34 0 0 Z " fill="#3E0C1A" transform="translate(341,631)"/>
<path d="M0 0 C0.89267578 0.0515625 1.78535156 0.103125 2.70507812 0.15625 C3.63384766 0.22070312 4.56261719 0.28515625 5.51953125 0.3515625 C6.93008789 0.43664062 6.93008789 0.43664062 8.36914062 0.5234375 C10.69088034 0.66486327 13.01153055 0.8162658 15.33203125 0.9765625 C15.33203125 1.3065625 15.33203125 1.6365625 15.33203125 1.9765625 C-1.08202695 4.09936205 -17.11452563 5.42847652 -33.66796875 4.9765625 C-33.66796875 4.6465625 -33.66796875 4.3165625 -33.66796875 3.9765625 C-32.89606201 3.9264502 -32.12415527 3.87633789 -31.32885742 3.82470703 C-27.83704669 3.59284849 -24.34632397 3.34737154 -20.85546875 3.1015625 C-19.64052734 3.02292969 -18.42558594 2.94429687 -17.17382812 2.86328125 C-16.01044922 2.77949219 -14.84707031 2.69570313 -13.6484375 2.609375 C-12.03811646 2.49940186 -12.03811646 2.49940186 -10.39526367 2.38720703 C-6.26428936 1.76521269 -4.37770435 -0.27883467 0 0 Z " fill="#887E8A" transform="translate(561.66796875,955.0234375)"/>
<path d="M0 0 C0.33 0 0.66 0 1 0 C3.32654024 13.79306 4.40559032 27.01464504 4 41 C3.34 41 2.68 41 2 41 C2 36.71 2 32.42 2 28 C1.67 28 1.34 28 1 28 C-0.25406138 22.21354356 -0.11186913 16.51131884 -0.0625 10.625 C-0.05798828 9.60277344 -0.05347656 8.58054687 -0.04882812 7.52734375 C-0.037103 5.01816806 -0.02069176 2.5091151 0 0 Z " fill="#564E5A" transform="translate(954,435)"/>
<path d="M0 0 C1.32 0.33 2.64 0.66 4 1 C-2.27 7.27 -8.54 13.54 -15 20 C-15.66 19.01 -16.32 18.02 -17 17 C-14.27038702 14.12571575 -11.51327626 11.27940607 -8.75 8.4375 C-7.97269531 7.61830078 -7.19539062 6.79910156 -6.39453125 5.95507812 C-5.64042969 5.18486328 -4.88632812 4.41464844 -4.109375 3.62109375 C-3.07248535 2.54492798 -3.07248535 2.54492798 -2.01464844 1.44702148 C-1.34981445 0.96950439 -0.68498047 0.4919873 0 0 Z " fill="#4B4152" transform="translate(834,820)"/>
<path d="M0 0 C3 2 3 2 3.73046875 4.13671875 C4.63381062 9.17844729 5.22272134 13.87740916 5 19 C4.01 18.67 3.02 18.34 2 18 C1 15 1 15 2 12 C1.01 12.33 0.02 12.66 -1 13 C-2 12 -2 12 -2.09765625 10.15234375 C-2.06510417 8.1015625 -2.03255208 6.05078125 -2 4 C-1.34 4 -0.68 4 0 4 C0 2.68 0 1.36 0 0 Z " fill="#ADACAF" transform="translate(466,397)"/>
<path d="M0 0 C0.33 0 0.66 0 1 0 C1 6.27 1 12.54 1 19 C1.33 16.69 1.66 14.38 2 12 C2.99 11.67 3.98 11.34 5 11 C4.01165919 20.73004484 4.01165919 20.73004484 1.53125 23.84375 C-0.125 25.1875 -0.125 25.1875 -3 27 C-4.03226623 24.31610779 -4.0578292 23.16551117 -3.09375 20.40625 C-1.78017174 16.31539199 -1.3152684 12.38333366 -0.875 8.125 C-0.78863281 7.34125 -0.70226562 6.5575 -0.61328125 5.75 C-0.4029851 3.83396841 -0.20067256 1.9170634 0 0 Z " fill="#949397" transform="translate(576,354)"/>
<path d="M0 0 C0.33 0 0.66 0 1 0 C2.06346444 8.21757076 2.11790325 16.34860655 2.0625 24.625 C2.05798828 25.91535156 2.05347656 27.20570313 2.04882812 28.53515625 C2.03714295 31.69015375 2.02076044 34.84505137 2 38 C0.68 38.66 -0.64 39.32 -2 40 C-1.67 39.01 -1.34 38.02 -1 37 C-0.8460737 34.19839498 -0.74261955 31.41701575 -0.68359375 28.61328125 C-0.66281265 27.79627243 -0.64203156 26.97926361 -0.62062073 26.13749695 C-0.55526921 23.52924966 -0.49630727 20.92090225 -0.4375 18.3125 C-0.39430108 16.54360946 -0.35068635 14.77472903 -0.30664062 13.00585938 C-0.19960257 8.67067537 -0.09829456 4.33539071 0 0 Z " fill="#AC9B9D" transform="translate(305,638)"/>
<path d="M0 0 C4.07487494 -0.12366555 8.14902301 -0.21436476 12.2253418 -0.2746582 C13.61160304 -0.29979219 14.99773187 -0.33390592 16.38354492 -0.37719727 C18.37621037 -0.43788396 20.36984533 -0.46354879 22.36328125 -0.48828125 C23.56251221 -0.51446533 24.76174316 -0.54064941 25.99731445 -0.56762695 C29 0 29 0 30.93432617 2.38598633 C32.08359802 5.20505934 32.12806289 6.23111837 31 9 C30.5359375 7.824375 30.5359375 7.824375 30.0625 6.625 C29.07124962 4.07669872 29.07124962 4.07669872 28 2 C18.76 2 9.52 2 0 2 C0 1.34 0 0.68 0 0 Z " fill="#511D2D" transform="translate(259,593)"/>
<path d="M0 0 C0.33 0 0.66 0 1 0 C1.07516846 0.89195068 1.15033691 1.78390137 1.2277832 2.70288086 C1.51541049 6.05287997 1.81294178 9.40170629 2.11694336 12.75024414 C2.24584311 14.19195808 2.37093408 15.63401836 2.49194336 17.07641602 C3.16554881 25.0737482 3.99769227 32.47320611 7 40 C5.68 39.67 4.36 39.34 3 39 C3 37.68 3 36.36 3 35 C2.72424738 33.57572433 2.40958145 32.15859333 2.0625 30.75 C0.23424195 23.32862657 -0.14296674 16.10101215 -0.0625 8.5 C-0.05798828 7.67757813 -0.05347656 6.85515625 -0.04882812 6.0078125 C-0.03718489 4.00517604 -0.01925556 2.00257773 0 0 Z " fill="#908E92" transform="translate(446,341)"/>
<path d="M0 0 C2.125 0.9375 2.125 0.9375 4 2 C2.74503546 5.47528641 1.30417465 8.11978169 -1 11 C-1.99 12.485 -1.99 12.485 -3 14 C-3.33 12.68 -3.66 11.36 -4 10 C-4.99 10.33 -5.98 10.66 -7 11 C-6.49697411 6.59852343 -4.97554199 4.24604581 -2 1 C-1.34 0.67 -0.68 0.34 0 0 Z " fill="#1E1125" transform="translate(558,384)"/>
<path d="M0 0 C0.66 0 1.32 0 2 0 C1.5587029 5.22588666 1.07351958 10.1211304 -1 15 C-1.99 15.495 -1.99 15.495 -3 16 C-4.59369248 12.5137977 -5.65354665 9.82791609 -5 6 C-3.52124051 3.68016169 -1.94840383 1.99479439 0 0 Z " fill="#A9ACAC" transform="translate(562,387)"/>
<path d="M0 0 C1.32 0.33 2.64 0.66 4 1 C4.10864945 3.06132142 4.18588321 5.12431321 4.25 7.1875 C4.29640625 8.33605469 4.3428125 9.48460937 4.390625 10.66796875 C3.90812811 14.7836672 2.98650587 16.15468311 0 19 C-3.39160156 19.56762695 -3.39160156 19.56762695 -7.390625 19.48828125 C-8.09523865 19.48120651 -8.79985229 19.47413177 -9.52581787 19.46684265 C-11.76830891 19.43893357 -14.00826871 19.37621287 -16.25 19.3125 C-17.77340134 19.28741211 -19.29684197 19.26459978 -20.8203125 19.24414062 C-24.54769249 19.18912213 -28.27359906 19.10287804 -32 19 C-32 18.67 -32 18.34 -32 18 C-21.44 17.67 -10.88 17.34 0 17 C2.19302146 11.51744634 3.28107157 7.20267892 1 1.5 C0.505 0.7575 0.505 0.7575 0 0 Z " fill="#4E5567" transform="translate(769,574)"/>
<path d="M0 0 C3.875 1.875 3.875 1.875 5 3 C5.14115161 5.67058851 5.04247107 8.32432238 5 11 C4.34 11 3.68 11 3 11 C2.67 14.63 2.34 18.26 2 22 C1.67 22 1.34 22 1 22 C0.20274098 14.63959083 -0.12886183 7.40239645 0 0 Z " fill="#99999B" transform="translate(454,349)"/>
<path d="M0 0 C1.98 0 3.96 0 6 0 C6 5.28 6 10.56 6 16 C5.34 16.33 4.68 16.66 4 17 C3.67 12.38 3.34 7.76 3 3 C2.34 5.97 1.68 8.94 1 12 C0.67 12 0.34 12 0 12 C0 8.04 0 4.08 0 0 Z " fill="#370815" transform="translate(365,631)"/>
<path d="M0 0 C-1.28913487 0.67154933 -2.58140204 1.33708859 -3.875 2 C-4.59429688 2.37125 -5.31359375 2.7425 -6.0546875 3.125 C-8 4 -8 4 -10 4 C-10.09410156 4.59296875 -10.18820312 5.1859375 -10.28515625 5.796875 C-11.15945219 8.49142641 -12.26720318 9.46322756 -14.4375 11.25 C-15.05496094 11.77078125 -15.67242188 12.2915625 -16.30859375 12.828125 C-18 14 -18 14 -20 14 C-19.67 12.68 -19.34 11.36 -19 10 C-18.34 10 -17.68 10 -17 10 C-16.34 8.68 -15.68 7.36 -15 6 C-14.34 6 -13.68 6 -13 6 C-13 5.01 -13 4.02 -13 3 C-11.40084119 2.30093058 -9.79544955 1.61610532 -8.1875 0.9375 C-7.29417969 0.55464844 -6.40085937 0.17179688 -5.48046875 -0.22265625 C-3 -1 -3 -1 0 0 Z " fill="#677E8D" transform="translate(661,576)"/>
<path d="M0 0 C3.00617269 3.00617269 2.59585316 5.82381598 3 10 C10.18995898 11.2250724 10.18995898 11.2250724 17 9 C16.125 11.5 16.125 11.5 14 14 C10.54731686 14.76726292 7.46229981 14.68566003 4 14 C1.375 12.0625 1.375 12.0625 0 9 C-0.2942255 5.96643368 -0.23808178 3.03554269 0 0 Z " fill="#999196" transform="translate(317,678)"/>
<path d="M0 0 C0.66 0 1.32 0 2 0 C2 2.31 2 4.62 2 7 C1.34 6.01 0.68 5.02 0 4 C-0.99 4.99 -1.98 5.98 -3 7 C-2.67 7.66 -2.34 8.32 -2 9 C-5 12 -8 15 -11 18 C-10.60791281 12.64147506 -8.6642613 8.85831875 -5 5 C-4.34 5 -3.68 5 -3 5 C-2.690625 4.360625 -2.38125 3.72125 -2.0625 3.0625 C-1 1 -1 1 0 0 Z " fill="#2C2631" transform="translate(497,378)"/>
<path d="M0 0 C0 0.66 0 1.32 0 2 C0.61488281 1.89300781 1.22976563 1.78601563 1.86328125 1.67578125 C3.07564453 1.49595703 3.07564453 1.49595703 4.3125 1.3125 C5.51326172 1.12107422 5.51326172 1.12107422 6.73828125 0.92578125 C9 1 9 1 10.79296875 2.48046875 C11.19128906 2.98191406 11.58960938 3.48335937 12 4 C11.01 4.33 10.02 4.66 9 5 C6.83333333 5.83333333 6.83333333 5.83333333 6 8 C5.2575 7.38125 4.515 6.7625 3.75 6.125 C-0.4754776 2.85985822 -3.40428991 1.75683644 -8.75 1.375 C-10.22726562 1.26285156 -10.22726562 1.26285156 -11.734375 1.1484375 C-12.48203125 1.09945312 -13.2296875 1.05046875 -14 1 C-14 0.67 -14 0.34 -14 0 C-4.58997722 -1.33257403 -4.58997722 -1.33257403 0 0 Z " fill="#B67D7D" transform="translate(343,561)"/>
<path d="M0 0 C1.30986194 4.24085718 0.31423204 6.49172593 -1.3125 10.625 C-3.4815216 16.38495737 -5.06183835 21.9229529 -6 28 C-6.99 28.33 -7.98 28.66 -9 29 C-8.42033198 22.43963016 -6.24886441 16.69819446 -3.9375 10.5625 C-3.37192383 9.03592773 -3.37192383 9.03592773 -2.79492188 7.47851562 C-1.86946564 4.98329819 -0.93769349 2.49063881 0 0 Z " fill="#908793" transform="translate(93,348)"/>
<path d="M0 0 C1.65 0 3.3 0 5 0 C5.33 0.66 5.66 1.32 6 2 C5.01 2.495 5.01 2.495 4 3 C4 4.65 4 6.3 4 8 C3.01 8.33 2.02 8.66 1 9 C1 10.98 1 12.96 1 15 C-1.18085057 11.72872414 -1.24887859 10.72623277 -1.1875 6.9375 C-1.18105469 6.05964844 -1.17460937 5.18179687 -1.16796875 4.27734375 C-1 2 -1 2 0 0 Z " fill="#9D9B9F" transform="translate(439,339)"/>
<path d="M0 0 C0.33 0 0.66 0 1 0 C1.33 2.64 1.66 5.28 2 8 C2.99 8 3.98 8 5 8 C5.12375 8.969375 5.2475 9.93875 5.375 10.9375 C5.684375 12.4534375 5.684375 12.4534375 6 14 C6.66 14.33 7.32 14.66 8 15 C8.33 13.68 8.66 12.36 9 11 C9.33 14.3 9.66 17.6 10 21 C8.80267191 19.83688129 7.61058271 18.66789055 6.4453125 17.47265625 C5.05543242 16.05648114 3.62210713 14.68334681 2.1875 13.3125 C-0.78236621 8.81527403 -0.46568161 5.23633099 0 0 Z " fill="#939296" transform="translate(463,401)"/>
<path d="M0 0 C8.15484303 0.44651878 16.04264468 1.11150323 24 3 C24 3.33 24 3.66 24 4 C15.49077472 4.40735653 8.1609778 3.43092956 0 1 C0 0.67 0 0.34 0 0 Z " fill="#0D0813" transform="translate(431,951)"/>
<path d="M0 0 C1.73030291 0.28484846 3.45920714 0.57819938 5.1875 0.875 C6.15042969 1.03742187 7.11335938 1.19984375 8.10546875 1.3671875 C10.93475808 1.98573658 13.38969308 2.74816542 16 4 C16.33 4.66 16.66 5.32 17 6 C9.57142857 6.14285714 9.57142857 6.14285714 6 5 C6 4.34 6 3.68 6 3 C5.195625 2.87625 4.39125 2.7525 3.5625 2.625 C2.716875 2.41875 1.87125 2.2125 1 2 C0.67 1.34 0.34 0.68 0 0 Z " fill="#362F39" transform="translate(396,943)"/>
<path d="M0 0 C-0.598125 0.268125 -1.19625 0.53625 -1.8125 0.8125 C-4.03394582 1.83517284 -4.03394582 1.83517284 -5.25 3.5625 C-8.13252959 5.93029216 -11.34155006 5.70012705 -15 6 C-15.33 5.01 -15.66 4.02 -16 3 C-10.47239641 0.89424625 -5.93002267 -0.37851209 0 0 Z " fill="#0F0A14" transform="translate(525,387)"/>
<path d="M0 0 C2.44168979 3.03056792 4.13027389 6.09018596 5.75 9.625 C6.19859375 10.58664062 6.6471875 11.54828125 7.109375 12.5390625 C7.40328125 13.35117187 7.6971875 14.16328125 8 15 C7.67 15.66 7.34 16.32 7 17 C3.87729874 14.48169253 3.05476902 13.2738451 2.25 9.25 C2.1675 8.1775 2.085 7.105 2 6 C1.01 5.67 0.02 5.34 -1 5 C-0.67 3.35 -0.34 1.7 0 0 Z " fill="#5B5462" transform="translate(913,311)"/>
<path d="M0 0 C-2.28560647 1.5306999 -4.57762667 3.04965044 -6.875 4.5625 C-7.52597656 5.00013672 -8.17695312 5.43777344 -8.84765625 5.88867188 C-10.52625497 6.98754836 -12.26023387 8.0007818 -14 9 C-14.66 8.67 -15.32 8.34 -16 8 C-15.01 7.67 -14.02 7.34 -13 7 C-12.87625 6.38125 -12.7525 5.7625 -12.625 5.125 C-12 3 -12 3 -9.75 1.3125 C-3.41860465 -1.70930233 -3.41860465 -1.70930233 0 0 Z " fill="#7C7581" transform="translate(758,888)"/>
<path d="M0 0 C0.66 0.99 1.32 1.98 2 3 C1.10796875 3.06058594 0.2159375 3.12117187 -0.703125 3.18359375 C-2.45882812 3.30927734 -2.45882812 3.30927734 -4.25 3.4375 C-5.99023438 3.55931641 -5.99023438 3.55931641 -7.765625 3.68359375 C-10.30977376 3.93247787 -12.55953248 4.28114942 -15 5 C-14 2 -14 2 -12 0.8125 C-8.0580798 -0.25510339 -4.04853862 -0.73971334 0 0 Z " fill="#79A4B5" transform="translate(696,559)"/>
<path d="M0 0 C8.59868438 0.61419174 16.69484752 2.80907021 25 5 C25 5.33 25 5.66 25 6 C20.19867955 5.62612669 15.52398323 5.24329011 10.875 3.9375 C6.66889728 2.9198945 3.29964198 2.84644136 -1 3 C-0.67 2.01 -0.34 1.02 0 0 Z " fill="#7A737F" transform="translate(604,73)"/>
<path d="M0 0 C0.99 0.33 1.98 0.66 3 1 C-0.51548654 6.04395895 -5.11736877 9.37975847 -10 13 C-10.66 12.67 -11.32 12.34 -12 12 C-11.34 10.68 -10.68 9.36 -10 8 C-9.01 8 -8.02 8 -7 8 C-6.7525 7.360625 -6.505 6.72125 -6.25 6.0625 C-5 4 -5 4 -2.9375 3.4375 C-2.298125 3.293125 -1.65875 3.14875 -1 3 C-0.67 2.01 -0.34 1.02 0 0 Z " fill="#696170" transform="translate(794,857)"/>
<path d="M0 0 C-0.99 0.495 -0.99 0.495 -2 1 C4.93 1.33 11.86 1.66 19 2 C19 2.33 19 2.66 19 3 C10.09 3 1.18 3 -8 3 C-8 2.34 -8 1.68 -8 1 C-4.93251126 -0.86240388 -3.40254489 -1.2151946 0 0 Z " fill="#261E2A" transform="translate(497,407)"/>
<path d="M0 0 C1.13890378 3.79367246 0.59374374 5.36980592 -1 9 C-1.144375 9.86625 -1.28875 10.7325 -1.4375 11.625 C-2.09005421 14.3802289 -2.87143653 15.19890783 -5 17 C-6.00488989 17.99508608 -7.0055709 18.99445996 -8 20 C-5.83836487 13.06001352 -3.1063786 6.56882431 0 0 Z " fill="#706975" transform="translate(107,316)"/>
<path d="M0 0 C6.26079448 -0.43177893 9.09075703 0.07260562 14 4 C12.1875 5.0625 12.1875 5.0625 10 6 C9.01 5.67 8.02 5.34 7 5 C7 4.34 7 3.68 7 3 C6.030625 2.87625 5.06125 2.7525 4.0625 2.625 C3.051875 2.41875 2.04125 2.2125 1 2 C0.67 1.34 0.34 0.68 0 0 Z " fill="#B98E8F" transform="translate(336,558)"/>
<path d="M0 0 C1.5625 1.75 1.5625 1.75 3 4 C2.75203633 6.16968209 2.55766393 7.44233607 1 9 C1.0928125 10.175625 1.0928125 10.175625 1.1875 11.375 C1 14 1 14 -1 15.8125 C-1.66 16.204375 -2.32 16.59625 -3 17 C-2.48517081 11.147205 -1.54642808 5.6702363 0 0 Z " fill="#909093" transform="translate(556,395)"/>
<path d="M0 0 C3.02650837 1.42474717 5.74738135 3.09016377 8.55078125 4.9140625 C9.52660156 5.54570312 10.50242187 6.17734375 11.5078125 6.828125 C12.24386719 7.31023437 12.97992187 7.79234375 13.73828125 8.2890625 C11.73828125 9.2890625 11.73828125 9.2890625 8.61328125 8.3515625 C7.19015625 7.825625 7.19015625 7.825625 5.73828125 7.2890625 C5.73828125 6.6290625 5.73828125 5.9690625 5.73828125 5.2890625 C2.76828125 4.7940625 2.76828125 4.7940625 -0.26171875 4.2890625 C-0.26171875 3.2990625 -0.26171875 2.3090625 -0.26171875 1.2890625 C-1.58171875 0.9590625 -2.90171875 0.6290625 -4.26171875 0.2890625 C-2.26171875 -0.7109375 -2.26171875 -0.7109375 0 0 Z " fill="#645E6C" transform="translate(744.26171875,127.7109375)"/>
<path d="M0 0 C7.13393752 0.51537952 14.01812817 1.44005901 21 3 C21 3.33 21 3.66 21 4 C19.20991533 4.22151549 17.41781838 4.42682213 15.625 4.625 C14.62726562 4.74101563 13.62953125 4.85703125 12.6015625 4.9765625 C11.74304688 4.98429687 10.88453125 4.99203125 10 5 C9.34 4.34 8.68 3.68 8 3 C5.34462628 2.43479997 2.70855287 2.26211802 0 2 C0 1.34 0 0.68 0 0 Z " fill="#716B79" transform="translate(583,69)"/>
<path d="M0 0 C-3.82517513 2.39073445 -7.59665524 2.55966552 -12 3 C-12 3.66 -12 4.32 -12 5 C-15.63 4.67 -19.26 4.34 -23 4 C-23 3.67 -23 3.34 -23 3 C-20.48056604 2.49187886 -17.95983127 1.99335466 -15.4375 1.5 C-14.73302734 1.35691406 -14.02855469 1.21382813 -13.30273438 1.06640625 C-8.78109762 0.19125075 -4.60512972 -0.14523405 0 0 Z " fill="#837C88" transform="translate(448,68)"/>
<path d="M0 0 C0.89267578 0.05478516 1.78535156 0.10957031 2.70507812 0.16601562 C4.09823242 0.27526367 4.09823242 0.27526367 5.51953125 0.38671875 C6.45990234 0.44794922 7.40027344 0.50917969 8.36914062 0.57226562 C10.69144082 0.72551386 13.01174583 0.89334735 15.33203125 1.07421875 C15.33203125 1.40421875 15.33203125 1.73421875 15.33203125 2.07421875 C7.68119167 3.32333542 0.05762139 3.16475301 -7.66796875 3.07421875 C-5.23408481 0.06198615 -3.81296256 -0.26715024 0 0 Z " fill="#625964" transform="translate(561.66796875,954.92578125)"/>
<path d="M0 0 C2.83374881 3.20336822 3.5205537 5.78087253 4 10 C3.34 9.34 2.68 8.68 2 8 C0.68737429 9.08552366 0.68737429 9.08552366 0.90234375 11.72265625 C0.91394531 12.82480469 0.92554688 13.92695313 0.9375 15.0625 C0.94652344 16.16722656 0.95554687 17.27195312 0.96484375 18.41015625 C0.97644531 19.26480469 0.98804688 20.11945313 1 21 C-1 19 -1 19 -1.23046875 16.28515625 C-1.21628906 15.22167969 -1.20210938 14.15820312 -1.1875 13.0625 C-1.18105469 12.00160156 -1.17460937 10.94070313 -1.16796875 9.84765625 C-1 7 -1 7 0 4 C0 2.68 0 1.36 0 0 Z " fill="#3A3340" transform="translate(470,388)"/>
<path d="M0 0 C1 2 1 2 0.47094727 3.87939453 C0.17244873 4.62302246 -0.1260498 5.36665039 -0.43359375 6.1328125 C-0.75263672 6.93847656 -1.07167969 7.74414062 -1.40039062 8.57421875 C-1.91375977 9.83685547 -1.91375977 9.83685547 -2.4375 11.125 C-2.77587891 11.97449219 -3.11425781 12.82398438 -3.46289062 13.69921875 C-4.30176957 15.80232371 -5.14771125 17.90230155 -6 20 C-7.22541995 16.32374016 -6.63382842 14.59752413 -5.6875 10.875 C-5.42324219 9.79992187 -5.15898438 8.72484375 -4.88671875 7.6171875 C-4 5 -4 5 -2 4 C-0.86649466 1.98330173 -0.86649466 1.98330173 0 0 Z " fill="#706A73" transform="translate(933,665)"/>
<path d="M0 0 C0 0.99 0 1.98 0 3 C-0.66 3.66 -1.32 4.32 -2 5 C-2.268125 5.763125 -2.53625 6.52625 -2.8125 7.3125 C-4.90597936 12.05037435 -8.8325827 15.06737301 -13 18 C-11.32774297 14.23742169 -8.97793589 11.14941529 -6.5 7.875 C-6.09652344 7.33746094 -5.69304687 6.79992187 -5.27734375 6.24609375 C-3.60868567 4.03773767 -1.95966381 1.95966381 0 0 Z " fill="#817D87" transform="translate(163,229)"/>
<path d="M0 0 C-3.75021721 1.96077347 -7.3043772 3.79388954 -11.375 5 C-14.13987251 5.75711173 -14.13987251 5.75711173 -15.375 8.125 C-15.58125 8.74375 -15.7875 9.3625 -16 10 C-16 7 -16 7 -15 5 C-14.34 5 -13.68 5 -13 5 C-12.67 4.01 -12.34 3.02 -12 2 C-10.29296875 1.015625 -10.29296875 1.015625 -8.1875 0.25 C-7.50042969 -0.01296875 -6.81335938 -0.2759375 -6.10546875 -0.546875 C-3.71856031 -1.06056958 -2.29362227 -0.76282269 0 0 Z " fill="#874A54" transform="translate(313,559)"/>
<path d="M0 0 C0.66 0 1.32 0 2 0 C2.33 0.99 2.66 1.98 3 3 C1.37750059 3.83819158 -0.24808497 4.6704116 -1.875 5.5 C-3.23238281 6.19609375 -3.23238281 6.19609375 -4.6171875 6.90625 C-7 8 -7 8 -9 8 C-9 7.01 -9 6.02 -9 5 C-5.91190305 3.23537317 -4.76687864 3 -1 3 C-0.67 2.01 -0.34 1.02 0 0 Z " fill="#5C5463" transform="translate(720,906)"/>
<path d="M0 0 C0.33 0 0.66 0 1 0 C1.03738281 0.61746094 1.07476562 1.23492187 1.11328125 1.87109375 C1.58723416 7.9767224 2.80600373 13.28733047 5 19 C3.68 18.67 2.36 18.34 1 18 C1 16.68 1 15.36 1 14 C0.67 13.34 0.34 12.68 0 12 C-0.07065617 9.95944995 -0.08421976 7.91665743 -0.0625 5.875 C-0.05347656 4.77929688 -0.04445313 3.68359375 -0.03515625 2.5546875 C-0.02355469 1.71164062 -0.01195312 0.86859375 0 0 Z " fill="#88888D" transform="translate(448,362)"/>
<path d="M0 0 C7.35423405 0.27037625 12.62151248 1.26918654 19 5 C14.90913548 6.67641098 11.28488982 5.2409319 7.25 4.0625 C6.20392578 3.76956055 6.20392578 3.76956055 5.13671875 3.47070312 C3.42201027 2.9891754 1.71065123 2.49574843 0 2 C0 1.34 0 0.68 0 0 Z " fill="#716C73" transform="translate(383,941)"/>
<path d="M0 0 C0.99 0.33 1.98 0.66 3 1 C3 1.66 3 2.32 3 3 C4.32 3.33 5.64 3.66 7 4 C7 4.66 7 5.32 7 6 C8.65 6 10.3 6 12 6 C11.67 6.99 11.34 7.98 11 9 C6.22390502 7.35821735 2.20617096 4.73453298 -2 2 C-1.34 1.34 -0.68 0.68 0 0 Z " fill="#635E6A" transform="translate(277,892)"/>
<path d="M0 0 C0.99 0.495 0.99 0.495 2 1 C2 1.66 2 2.32 2 3 C2.639375 3.185625 3.27875 3.37125 3.9375 3.5625 C6 5 6 5 6.625 8.375 C6.74875 9.57125 6.8725 10.7675 7 12 C7.37125 12.7425 7.7425 13.485 8.125 14.25 C8.558125 15.11625 8.558125 15.11625 9 16 C8.67 16.99 8.34 17.98 8 19 C6.66042079 16.21128823 5.32941565 13.41856938 4 10.625 C3.6184375 9.8309375 3.236875 9.036875 2.84375 8.21875 C2.4828125 7.45820312 2.121875 6.69765625 1.75 5.9140625 C1.41484375 5.2123291 1.0796875 4.5105957 0.734375 3.78759766 C0 2 0 2 0 0 Z " fill="#7B757F" transform="translate(101,693)"/>
<path d="M0 0 C0.66 0 1.32 0 2 0 C2.66 0.99 3.32 1.98 4 3 C9.445 2.505 9.445 2.505 15 2 C14 5 14 5 12 6 C8.6875 6.375 8.6875 6.375 5 6 C2.0625 3.5625 2.0625 3.5625 0 1 C0 0.67 0 0.34 0 0 Z " fill="#84858C" transform="translate(717,676)"/>
<path d="M0 0 C0.99 0 1.98 0 3 0 C3 3.63 3 7.26 3 11 C2.01 11.33 1.02 11.66 0 12 C0.020625 11.113125 0.04125 10.22625 0.0625 9.3125 C0.09927383 6.06351059 0.09927383 6.06351059 -0.5625 3.1875 C-0.706875 2.465625 -0.85125 1.74375 -1 1 C-0.67 0.67 -0.34 0.34 0 0 Z " fill="#500E1D" transform="translate(341,631)"/>
<path d="M0 0 C0.99 0 1.98 0 3 0 C3.49230769 7.26153846 3.49230769 7.26153846 1 11 C0.34 11.66 -0.32 12.32 -1 13 C-1.33 11.68 -1.66 10.36 -2 9 C-1.34 9 -0.68 9 0 9 C0 6.03 0 3.06 0 0 Z " fill="#98999C" transform="translate(558,402)"/>
<path d="M0 0 C0.05395478 1.62463842 0.09277195 3.24978541 0.125 4.875 C0.14820313 5.77992188 0.17140625 6.68484375 0.1953125 7.6171875 C0 10 0 10 -2 12 C-4.08466413 8.61242079 -4.42905061 5.94726562 -4 2 C-1 0 -1 0 0 0 Z " fill="#14091A" transform="translate(555,393)"/>
<path d="M0 0 C0.33 0 0.66 0 1 0 C1.13277344 0.90363281 1.26554687 1.80726563 1.40234375 2.73828125 C1.57894531 3.91777344 1.75554687 5.09726562 1.9375 6.3125 C2.11152344 7.48425781 2.28554688 8.65601563 2.46484375 9.86328125 C2.92093031 13.01641403 2.92093031 13.01641403 4 16 C2.68 15.67 1.36 15.34 0 15 C-0.19601608 13.25093341 -0.38147403 11.50068154 -0.5625 9.75 C-0.66691406 8.77546875 -0.77132813 7.8009375 -0.87890625 6.796875 C-0.98974468 4.2368648 -0.77738092 2.41851841 0 0 Z " fill="#B4B7B7" transform="translate(446,361)"/>
<path d="M0 0 C3.3 0.33 6.6 0.66 10 1 C4.33165837 3.83417082 -1.60932353 5.41230171 -8 5 C-5.33333333 3.66666667 -2.66666667 2.33333333 0 1 C0 0.67 0 0.34 0 0 Z " fill="#736B73" transform="translate(603,948)"/>
<path d="M0 0 C1.9375 0.375 1.9375 0.375 4 1 C4.33 1.66 4.66 2.32 5 3 C3.42085985 3.53341184 1.83645613 4.05125763 0.25 4.5625 C-0.63171875 4.85253906 -1.5134375 5.14257812 -2.421875 5.44140625 C-5.07834316 6.01697435 -6.47031106 5.89248371 -9 5 C-8.34 5 -7.68 5 -7 5 C-7 4.01 -7 3.02 -7 2 C-5.02 2 -3.04 2 -1 2 C-0.67 1.34 -0.34 0.68 0 0 Z " fill="#5D5360" transform="translate(638,939)"/>
<path d="M0 0 C0.99 0 1.98 0 3 0 C2.37183502 3.94949704 1.1354471 7.19892028 -0.5625 10.8125 C-1.01753906 11.78832031 -1.47257813 12.76414062 -1.94140625 13.76953125 C-2.29074219 14.50558594 -2.64007812 15.24164062 -3 16 C-4.16909807 12.49270578 -3.85056945 10.55692677 -3 7 C-2.34 6.67 -1.68 6.34 -1 6 C-0.34227572 2.97065509 -0.34227572 2.97065509 0 0 Z " fill="#726E75" transform="translate(923,685)"/>
<path d="M0 0 C-2.67796972 3.46560787 -5.83662716 4.08264666 -10 5 C-13.4375 5.125 -13.4375 5.125 -16 5 C-16 4.67 -16 4.34 -16 4 C-14.35 4 -12.7 4 -11 4 C-11 3.34 -11 2.68 -11 2 C-3.57142857 -1.57142857 -3.57142857 -1.57142857 0 0 Z " fill="#959396" transform="translate(526,390)"/>
<path d="M0 0 C0.33 0 0.66 0 1 0 C0.67 5.61 0.34 11.22 0 17 C-0.66 16.67 -1.32 16.34 -2 16 C-2.20413361 10.26157749 -2.27141454 5.39460953 0 0 Z " fill="#B3B4B4" transform="translate(578,357)"/>
<path d="M0 0 C3.28465896 2.79196011 5.01321958 6.23196817 7 10 C7 10.66 7 11.32 7 12 C6.34 12 5.68 12 5 12 C5 11.34 5 10.68 5 10 C4.01 9.67 3.02 9.34 2 9 C2 7.68 2 6.36 2 5 C1.01 4.67 0.02 4.34 -1 4 C-0.67 2.68 -0.34 1.36 0 0 Z " fill="#635D69" transform="translate(902,291)"/>
<path d="M0 0 C0.66 0.33 1.32 0.66 2 1 C-0.09663099 4.97256398 -2.30075595 7.43898489 -6 10 C-6.66 10 -7.32 10 -8 10 C-6.34908222 5.70761377 -3.26245434 3.1206085 0 0 Z " fill="#959499" transform="translate(473,277)"/>
<path d="M0 0 C0.28875 0.639375 0.5775 1.27875 0.875 1.9375 C1.82823451 4.15206079 1.82823451 4.15206079 4 5 C3.67 5.66 3.34 6.32 3 7 C3.66 7.33 4.32 7.66 5 8 C5 10.97 5 13.94 5 17 C3.14670366 14.22005549 2.31436395 12.21743449 1.375 9.0625 C1.11460938 8.20785156 0.85421875 7.35320313 0.5859375 6.47265625 C0 4 0 4 0 0 Z " fill="#706A75" transform="translate(79,630)"/>
<path d="M0 0 C-2.12124966 0.86343824 -4.24713072 1.71550648 -6.375 2.5625 C-8.15003906 3.27599609 -8.15003906 3.27599609 -9.9609375 4.00390625 C-13 5 -13 5 -15 4 C-14.01 3.67 -13.02 3.34 -12 3 C-12 2.34 -12 1.68 -12 1 C-3.96428571 -1.27678571 -3.96428571 -1.27678571 0 0 Z " fill="#98ACB3" transform="translate(689,559)"/>
<path d="M0 0 C0.33 0 0.66 0 1 0 C1.27672202 1.91299138 1.52042815 3.83077936 1.75 5.75 C1.88921875 6.81734375 2.0284375 7.8846875 2.171875 8.984375 C2 12 2 12 0.015625 14.390625 C-0.64953125 14.92171875 -1.3146875 15.4528125 -2 16 C-1.85764543 14.27054347 -1.71095618 12.54144346 -1.5625 10.8125 C-1.48128906 9.84957031 -1.40007812 8.88664062 -1.31640625 7.89453125 C-1.02333849 5.21350398 -0.57296246 2.6337014 0 0 Z " fill="#7B727D" transform="translate(71,423)"/>
<path d="M0 0 C0.268125 0.639375 0.53625 1.27875 0.8125 1.9375 C1.88667752 4.33131686 1.88667752 4.33131686 5 5 C4.67 5.99 4.34 6.98 4 8 C-1.75 6.25 -1.75 6.25 -4 4 C-2.68 2.68 -1.36 1.36 0 0 Z " fill="#140B18" transform="translate(497,381)"/>
<path d="M0 0 C4.29 0 8.58 0 13 0 C8.17353323 3.21764451 2.80178176 4.36261136 -3 4 C-2.34 3.67 -1.68 3.34 -1 3 C-0.67 2.01 -0.34 1.02 0 0 Z " fill="#736A73" transform="translate(616,945)"/>
<path d="M0 0 C0.33 0 0.66 0 1 0 C1.33 2.64 1.66 5.28 2 8 C1.34 8 0.68 8 0 8 C-0.33 10.31 -0.66 12.62 -1 15 C-1.66 15 -2.32 15 -3 15 C-2.44854729 9.76119922 -1.57077907 5.02649303 0 0 Z " fill="#776D7B" transform="translate(79,390)"/>
<path d="M0 0 C-2 2 -2 2 -5.0390625 2.1953125 C-6.22242188 2.17210937 -7.40578125 2.14890625 -8.625 2.125 C-9.81351563 2.10695313 -11.00203125 2.08890625 -12.2265625 2.0703125 C-13.14179687 2.04710937 -14.05703125 2.02390625 -15 2 C-10.59410693 -0.93726205 -5.06616281 -1.89981105 0 0 Z " fill="#0F0815" transform="translate(576,954)"/>
<path d="M0 0 C0.66 0 1.32 0 2 0 C1.52013969 5.56890517 0.70084819 10.67067568 -1 16 C-1.33 16 -1.66 16 -2 16 C-2.33 13.03 -2.66 10.06 -3 7 C-2.01 7 -1.02 7 0 7 C0 4.69 0 2.38 0 0 Z " fill="#807A82" transform="translate(948,610)"/>
<path d="M0 0 C1.83979073 2.7596861 2.48323221 4.29741882 3.1875 7.4375 C3.36667969 8.19933594 3.54585937 8.96117187 3.73046875 9.74609375 C4.0154963 12.12958496 3.72875415 13.73104204 3 16 C1 10.25 1 10.25 1 8 C0.34 7.67 -0.32 7.34 -1 7 C-0.67 4.69 -0.34 2.38 0 0 Z " fill="#766E79" transform="translate(947,403)"/>
<path d="M0 0 C2.0625 2.0625 2.0625 2.0625 4 5 C3.75 8.8125 3.75 8.8125 3 12 C0.05413171 7.58119757 -0.0985616 5.32232661 0 0 Z " fill="#0D0612" transform="translate(470,397)"/>
<path d="M0 0 C0.33 0.66 0.66 1.32 1 2 C3.02463255 2.65213292 3.02463255 2.65213292 5 3 C4.67 3.66 4.34 4.32 4 5 C2.53932801 4.54917531 1.08151968 4.08906463 -0.375 3.625 C-1.18710937 3.36976563 -1.99921875 3.11453125 -2.8359375 2.8515625 C-5 2 -5 2 -7 0 C-3.88407501 -1.03864166 -2.9737344 -1.09036928 0 0 Z " fill="#5C5763" transform="translate(328,918)"/>
<path d="M0 0 C0 2.83967231 -0.40267181 5.23735711 -1 8 C-1.99 8 -2.98 8 -4 8 C-4.33 9.32 -4.66 10.64 -5 12 C-5.66 12 -6.32 12 -7 12 C-5.44298069 7.32894208 -2.91552627 3.91294315 0 0 Z " fill="#6D6775" transform="translate(142,257)"/>
<path d="M0 0 C5.77759884 -0.12036664 11.27959989 0.1679418 17 1 C17 1.33 17 1.66 17 2 C11.43779559 2.81982605 6.51547368 3.26396272 1 2 C0.67 1.34 0.34 0.68 0 0 Z " fill="#292131" transform="translate(566,68)"/>
<path d="M0 0 C1.32 0.66 2.64 1.32 4 2 C2.87926138 2.83905565 1.75325453 3.67107831 0.625 4.5 C-0.00148438 4.9640625 -0.62796875 5.428125 -1.2734375 5.90625 C-3 7 -3 7 -5 7 C-4.60196439 4.11424181 -4.20990931 3.17810487 -1.9375 1.25 C-1.298125 0.8375 -0.65875 0.425 0 0 Z " fill="#554C5C" transform="translate(773,873)"/>
<path d="M0 0 C0.33 0 0.66 0 1 0 C3.20927172 5.97802937 2.93213141 10.73960391 2 17 C1.67 17 1.34 17 1 17 C0.00749455 11.29309366 -0.10477512 5.78591511 0 0 Z " fill="#332B3B" transform="translate(65,542)"/>
<path d="M0 0 C0.66 0 1.32 0 2 0 C2.33 2.64 2.66 5.28 3 8 C2.01 8 1.02 8 0 8 C-0.38063221 5.6739143 -0.71269945 3.33944736 -1 1 C-0.67 0.67 -0.34 0.34 0 0 Z " fill="#190F1E" transform="translate(464,383)"/>
<path d="M0 0 C1.18725323 3.71016634 1.34572261 7.12790678 1 11 C-1 13.4375 -1 13.4375 -3 15 C-2.44854729 9.76119922 -1.57077907 5.02649303 0 0 Z " fill="#463E4D" transform="translate(585,350)"/>
<path d="M0 0 C-2.34914492 2.34914492 -3.95679446 2.73140357 -7.125 3.625 C-8.03507813 3.88539063 -8.94515625 4.14578125 -9.8828125 4.4140625 C-10.58148437 4.60742188 -11.28015625 4.80078125 -12 5 C-11.67 4.34 -11.34 3.68 -11 3 C-10.01 3 -9.02 3 -8 3 C-8.33 2.01 -8.66 1.02 -9 0 C-5.52176885 -1.15941038 -3.54104422 -0.70820884 0 0 Z " fill="#776E7D" transform="translate(690,924)"/>
<path d="M0 0 C0.99 0.33 1.98 0.66 3 1 C2.71682074 2.60568666 2.42312209 4.20952047 2.125 5.8125 C1.96257813 6.70582031 1.80015625 7.59914063 1.6328125 8.51953125 C1 11 1 11 -1 14 C-1.33 11.69 -1.66 9.38 -2 7 C-1.01 6.67 -0.02 6.34 1 6 C0.67 4.02 0.34 2.04 0 0 Z " fill="#6C6770" transform="translate(940,636)"/>
<path d="M0 0 C0 0.66 0 1.32 0 2 C0.99 2.33 1.98 2.66 3 3 C2.01 3.495 2.01 3.495 1 4 C0.41734375 3.70351563 -0.1653125 3.40703125 -0.765625 3.1015625 C-3.48943609 1.75870459 -5.73056733 1.59067376 -8.75 1.375 C-10.22726562 1.26285156 -10.22726562 1.26285156 -11.734375 1.1484375 C-12.48203125 1.09945312 -13.2296875 1.05046875 -14 1 C-14 0.67 -14 0.34 -14 0 C-4.58997722 -1.33257403 -4.58997722 -1.33257403 0 0 Z " fill="#C4706F" transform="translate(343,561)"/>
<path d="M0 0 C0.66 0 1.32 0 2 0 C1.03644647 9.41002278 1.03644647 9.41002278 0 14 C-0.33 14 -0.66 14 -1 14 C-1 1 -1 1 0 0 Z " fill="#949597" transform="translate(562,387)"/>
<path d="M0 0 C0.66 0 1.32 0 2 0 C1.67 2.97 1.34 5.94 1 9 C0.01 9.33 -0.98 9.66 -2 10 C-1.54177532 6.53058454 -1.10868317 3.32604951 0 0 Z " fill="#68616D" transform="translate(86,367)"/>
<path d="M0 0 C4.43458973 1.3937282 6.87378374 3.60582235 10 7 C8.51515588 6.60404157 7.0371169 6.18249294 5.5625 5.75 C4.73878906 5.51796875 3.91507813 5.2859375 3.06640625 5.046875 C1 4 1 4 0.21484375 1.890625 C0.14394531 1.26671875 0.07304688 0.6428125 0 0 Z " fill="#68626F" transform="translate(768,144)"/>
<path d="M0 0 C1.32 0.33 2.64 0.66 4 1 C2.02 3.31 0.04 5.62 -2 8 C-2.66 6.68 -3.32 5.36 -4 4 C-2.25 1.9375 -2.25 1.9375 0 0 Z " fill="#4E4756" transform="translate(845,808)"/>
<path d="M0 0 C0.33 0 0.66 0 1 0 C1.22171552 2.60365928 1.42784859 5.20696493 1.625 7.8125 C1.68945312 8.55048828 1.75390625 9.28847656 1.8203125 10.04882812 C2.2265625 15.66015625 2.2265625 15.66015625 0 19 C-0.66 19 -1.32 19 -2 19 C-1.505 17.515 -1.505 17.515 -1 16 C-0.77202438 13.26710707 -0.58331813 10.54957796 -0.4375 7.8125 C-0.39431641 7.06291016 -0.35113281 6.31332031 -0.30664062 5.54101562 C-0.20077315 3.69421625 -0.0999024 1.84713166 0 0 Z " fill="#3B212D" transform="translate(364,660)"/>
<path d="M0 0 C4.99162787 0.47996422 6.85035583 0.88776687 11 4 C6.71 3.67 2.42 3.34 -2 3 C-1.34 2.01 -0.68 1.02 0 0 Z " fill="#150E1D" transform="translate(539,271)"/>
<path d="M0 0 C4.96916636 0.51405169 9.29026351 1.23384882 14 3 C10.29567073 4.18538537 6.8654622 4.35140565 3 4 C1.0625 2 1.0625 2 0 0 Z " fill="#756E7C" transform="translate(629,79)"/>
<path d="M0 0 C0.78375 0.04125 1.5675 0.0825 2.375 0.125 C-0.43304268 3.08904505 -2.80815774 5.56999019 -6.625 7.125 C-4.07142857 0.19387755 -4.07142857 0.19387755 0 0 Z " fill="#69616F" transform="translate(803.625,850.875)"/>
<path d="M0 0 C1.32 0.66 2.64 1.32 4 2 C1.69 3.65 -0.62 5.3 -3 7 C-3 6.34 -3 5.68 -3 5 C-3.66 4.67 -4.32 4.34 -5 4 C-3.35 2.68 -1.7 1.36 0 0 Z " fill="#504757" transform="translate(810,843)"/>
<path d="M0 0 C1.32 0.33 2.64 0.66 4 1 C0.535 3.97 0.535 3.97 -3 7 C-3.33 6.01 -3.66 5.02 -4 4 C-2.25 1.9375 -2.25 1.9375 0 0 Z " fill="#574F5F" transform="translate(834,820)"/>
<path d="M0 0 C1.32 0.33 2.64 0.66 4 1 C4.66 3.97 5.32 6.94 6 10 C3.36335259 7.36335259 1.744776 5.24029829 0 2 C0 1.34 0 0.68 0 0 Z " fill="#68626D" transform="translate(118,727)"/>
<path d="M0 0 C1.32 0.33 2.64 0.66 4 1 C3.34 1 2.68 1 2 1 C2 1.66 2 2.32 2 3 C0.8125 4.625 0.8125 4.625 -1 6 C-3.6875 6.1875 -3.6875 6.1875 -6 6 C-4.71034824 4.62437146 -3.37310707 3.29233607 -2 2 C-1.34 2 -0.68 2 0 2 C0 1.34 0 0.68 0 0 Z " fill="#6E8897" transform="translate(675,559)"/>
<path d="M0 0 C0 3.44118336 -0.68964993 5.82757352 -2 9 C-2.99 9.33 -3.98 9.66 -5 10 C-4.49701212 5.59885603 -2.91227269 3.28804981 0 0 Z " fill="#3A303F" transform="translate(556,385)"/>
<path d="M0 0 C3.39417765 3.12621626 5.6062718 5.56541027 7 10 C6.01 10.33 5.02 10.66 4 11 C3.34 9.02 2.68 7.04 2 5 C1.34 5 0.68 5 0 5 C0 3.35 0 1.7 0 0 Z " fill="#655D6C" transform="translate(882,259)"/>
<path d="M0 0 C-4.46726453 3.31442207 -8.62007164 3.66009167 -14 4 C-4.81927711 -2.12048193 -4.81927711 -2.12048193 0 0 Z " fill="#7C7582" transform="translate(363,90)"/>
<path d="M0 0 C0.75 1.75 0.75 1.75 1 4 C-0.9375 6.25 -0.9375 6.25 -3 8 C-3 5.69 -3 3.38 -3 1 C-2.01 0.67 -1.02 0.34 0 0 Z " fill="#999A9C" transform="translate(555,413)"/>
<path d="M0 0 C0.29648437 0.61746094 0.59296875 1.23492187 0.8984375 1.87109375 C1.95387167 4.07486933 1.95387167 4.07486933 3.625 6.0625 C5 8 5 8 5 11 C3.046875 10.2890625 3.046875 10.2890625 1 9 C0.390625 6.8359375 0.390625 6.8359375 0.25 4.375 C0.19328125 3.55773437 0.1365625 2.74046875 0.078125 1.8984375 C0.05234375 1.27195312 0.0265625 0.64546875 0 0 Z " fill="#150E1A" transform="translate(461,405)"/>
<path d="M0 0 C4.70588235 0.70588235 4.70588235 0.70588235 6 2 C6.07179964 3.51928038 6.08392007 5.04167482 6.0625 6.5625 C6.05347656 7.38878906 6.04445313 8.21507812 6.03515625 9.06640625 C6.01775391 10.02353516 6.01775391 10.02353516 6 11 C5.67 11 5.34 11 5 11 C4.8046875 8.94921875 4.609375 6.8984375 4.4140625 4.84765625 C4.27742187 4.23792969 4.14078125 3.62820313 4 3 C3.34 2.67 2.68 2.34 2 2 C1.67 2.66 1.34 3.32 1 4 C1 3.34 1 2.68 1 2 C0.34 1.67 -0.32 1.34 -1 1 C-0.67 0.67 -0.34 0.34 0 0 Z " fill="#89868C" transform="translate(580,339)"/>
<path d="M0 0 C0.763125 0.309375 1.52625 0.61875 2.3125 0.9375 C4.18789677 1.67893593 6.08684652 2.36228217 8 3 C8.6875 5.0625 8.6875 5.0625 9 7 C4.58110387 5.64978174 2.65654657 3.73884332 0 0 Z " fill="#726D79" transform="translate(229,860)"/>
<path d="M0 0 C0.99 0.33 1.98 0.66 3 1 C1.70700306 3.88437779 0.34058637 5.87219421 -2 8 C-2.20086443 4.28400809 -2.1519437 3.22791555 0 0 Z " fill="#5A5361" transform="translate(873,773)"/>
<path d="M0 0 C2.02350324 3.03525486 2.32124018 4.19426202 2.625 7.6875 C2.69976563 8.49574219 2.77453125 9.30398438 2.8515625 10.13671875 C2.90054688 10.75160156 2.94953125 11.36648438 3 12 C2.34 10.68 1.68 9.36 1 8 C0.34 8 -0.32 8 -1 8 C-0.67 5.36 -0.34 2.72 0 0 Z " fill="#6C6572" transform="translate(944,391)"/>
<path d="M0 0 C0.66 1.32 1.32 2.64 2 4 C0.35 5.65 -1.3 7.3 -3 9 C-2.5020163 5.26512223 -2.12508244 3.18762365 0 0 Z " fill="#39323B" transform="translate(489,387)"/>
<path d="M0 0 C2.64 1.98 5.28 3.96 8 6 C6 7 6 7 4 6.6875 C2 6 2 6 0 4 C0 2.68 0 1.36 0 0 Z " fill="#625D6A" transform="translate(800,168)"/>
<path d="M0 0 C5.15171623 -0.09038099 9.91913204 0.15318867 15 1 C12.63583538 2.48854809 11.43811781 3.05764708 8.625 2.6875 C7.325625 2.3471875 7.325625 2.3471875 6 2 C4.00102872 1.66055205 2.00124361 1.32578384 0 1 C0 0.67 0 0.34 0 0 Z " fill="#38313E" transform="translate(542,65)"/>
<path d="M0 0 C1.1875 2.5625 1.1875 2.5625 2 5 C-1.37503669 3.8141763 -3.64722731 2.72426311 -6 0 C-3 -1 -3 -1 0 0 Z " fill="#6B6771" transform="translate(273,888)"/>
<path d="M0 0 C2.475 0.495 2.475 0.495 5 1 C5.66 2.98 6.32 4.96 7 7 C5.83040013 6.02433888 4.66438823 5.044375 3.5 4.0625 C2.8503125 3.51722656 2.200625 2.97195313 1.53125 2.41015625 C1.0259375 1.94480469 0.520625 1.47945312 0 1 C0 0.67 0 0.34 0 0 Z " fill="#534C5B" transform="translate(179,813)"/>
<path d="M0 0 C2 0 2 0 3.5 1.375 C3.995 1.91125 4.49 2.4475 5 3 C5.66 3.66 6.32 4.32 7 5 C6.625 7.125 6.625 7.125 6 9 C4.99712471 7.68969568 3.99777175 6.37669473 3 5.0625 C2.443125 4.33160156 1.88625 3.60070312 1.3125 2.84765625 C0 1 0 1 0 0 Z " fill="#6D6873" transform="translate(156,785)"/>
<path d="M0 0 C2.96404505 2.80804268 5.44499019 5.18315774 7 9 C5.1875 8.8125 5.1875 8.8125 3 8 C0.85802506 5.09303401 0 3.64478912 0 0 Z " fill="#8F8E90" transform="translate(480,427)"/>
<path d="M0 0 C0.66 0 1.32 0 2 0 C2.66 1.98 3.32 3.96 4 6 C2.68 6.33 1.36 6.66 0 7 C0 4.69 0 2.38 0 0 Z " fill="#A7A9AD" transform="translate(462,389)"/>
<path d="M0 0 C0.33 0.66 0.66 1.32 1 2 C0.0625 4.625 0.0625 4.625 -1 7 C-1.66 7 -2.32 7 -3 7 C-3 7.99 -3 8.98 -3 10 C-3.66 10 -4.32 10 -5 10 C-3.84414715 6.08788267 -2.64465038 3.1254959 0 0 Z " fill="#7F7A85" transform="translate(130,275)"/>
<path d="M0 0 C4.23429756 1.31061591 8.07407404 2.94356259 12 5 C12 5.33 12 5.66 12 6 C7.5428126 5.73781251 5.48477302 5.42288711 2.0625 2.4375 C1.381875 1.633125 0.70125 0.82875 0 0 Z " fill="#160E1C" transform="translate(486,274)"/>
<path d="M0 0 C-1.0625 1.5 -1.0625 1.5 -3 3 C-6.6875 3.1875 -6.6875 3.1875 -10 3 C-6.88378718 -0.11621282 -4.21175599 -0.11383124 0 0 Z " fill="#0F0816" transform="translate(628,943)"/>
<path d="M0 0 C1.65 0.33 3.3 0.66 5 1 C2.06171403 3.50298434 -0.17902761 4.46930939 -4 5 C-2.68 3.35 -1.36 1.7 0 0 Z " fill="#716876" transform="translate(700,916)"/>
<path d="M0 0 C0.33 0.99 0.66 1.98 1 3 C-1.97 5.475 -1.97 5.475 -5 8 C-5.66 7.67 -6.32 7.34 -7 7 C-6.01 6.67 -5.02 6.34 -4 6 C-3.65657551 4.66923011 -3.32380126 3.33568021 -3 2 C-2.01 1.34 -1.02 0.68 0 0 Z " fill="#554C5B" transform="translate(749,889)"/>
<path d="M0 0 C2.71928517 0.37507382 3.84218661 0.84218661 5.8125 2.8125 C7 5 7 5 6.6875 7.25 C6.460625 7.8275 6.23375 8.405 6 9 C4 6 2 3 0 0 Z " fill="#9D9D9F" transform="translate(485,436)"/>
<path d="M0 0 C1.25541557 3.76624671 0.37061958 5.37188934 -1 9 C-1.66 8.34 -2.32 7.68 -3 7 C-2.75 3.9375 -2.75 3.9375 -2 1 C-1.34 0.67 -0.68 0.34 0 0 Z " fill="#AFAFAF" transform="translate(459,359)"/>
<path d="M0 0 C2.15377564 2.62198774 3.40072174 4.64404172 4 8 C3.34 8 2.68 8 2 8 C2 7.34 2 6.68 2 6 C1.01 5.67 0.02 5.34 -1 5 C-0.67 3.35 -0.34 1.7 0 0 Z " fill="#635C6A" transform="translate(913,311)"/>
<path d="M0 0 C1.60031344 3.20062687 0.03173691 5.72271806 -1 9 C-1.66 9 -2.32 9 -3 9 C-4.125 5.25 -4.125 5.25 -3 3 C-2.34 3 -1.68 3 -1 3 C-0.67 2.01 -0.34 1.02 0 0 Z " fill="#342D38" transform="translate(461,291)"/>
<path d="M0 0 C0.66 0.33 1.32 0.66 2 1 C1.4375 2.9375 1.4375 2.9375 0 5 C-3.625 5.75 -3.625 5.75 -7 6 C-4.74259377 3.66475218 -2.7194239 1.81294927 0 0 Z " fill="#706978" transform="translate(270,133)"/>
<path d="M0 0 C0.99 0.33 1.98 0.66 3 1 C1.68 3.31 0.36 5.62 -1 8 C-1.66 6.68 -2.32 5.36 -3 4 C-2.01 3.67 -1.02 3.34 0 3 C0 2.01 0 1.02 0 0 Z " fill="#635D66" transform="translate(888,752)"/>
<path d="M0 0 C0.99 0 1.98 0 3 0 C2.34 2.97 1.68 5.94 1 9 C0.67 9 0.34 9 0 9 C0 6.03 0 3.06 0 0 Z " fill="#6A656D" transform="translate(936,650)"/>
<path d="M0 0 C1.95582488 2.93373731 3.56224304 5.78216298 5 9 C4.67 9.66 4.34 10.32 4 11 C1.9656541 9.58480285 1.09589607 8.45017877 0.578125 6.01953125 C0.33726048 4.01823046 0.16467259 2.0090056 0 0 Z " fill="#160E1D" transform="translate(461,356)"/>
<path d="M0 0 C0.33 0 0.66 0 1 0 C1.08131463 1.43655854 1.13933559 2.8744483 1.1875 4.3125 C1.23970703 5.51326172 1.23970703 5.51326172 1.29296875 6.73828125 C0.93801608 9.47851584 0.10633718 10.29171079 -2 12 C-1.33333333 8 -0.66666667 4 0 0 Z " fill="#100918" transform="translate(457,314)"/>
<path d="M0 0 C1.125 1.75 1.125 1.75 2 4 C1.125 6.25 1.125 6.25 0 8 C-0.99 5.69 -1.98 3.38 -3 1 C-2.01 0.67 -1.02 0.34 0 0 Z " fill="#5C5561" transform="translate(117,719)"/>
<path d="M0 0 C0.33 0.66 0.66 1.32 1 2 C0.06553465 4.03144641 -0.93224776 6.03533587 -2 8 C-2.66 6.68 -3.32 5.36 -4 4 C-2.68 2.68 -1.36 1.36 0 0 Z " fill="#5E5863" transform="translate(917,703)"/>
<path d="M0 0 C0.99 0.33 1.98 0.66 3 1 C1.625 2.5 1.625 2.5 0 4 C-0.66 4 -1.32 4 -2 4 C-2.66 5.32 -3.32 6.64 -4 8 C-4 5 -4 5 -3 3 C-2.34 3 -1.68 3 -1 3 C-0.67 2.01 -0.34 1.02 0 0 Z " fill="#662937" transform="translate(301,561)"/>
<path d="M0 0 C0.33 0 0.66 0 1 0 C1.33 3.3 1.66 6.6 2 10 C1.01 9.01 0.02 8.02 -1 7 C-0.6875 3.3125 -0.6875 3.3125 0 0 Z " fill="#807E85" transform="translate(471,412)"/>
<path d="M0 0 C0.99 0.33 1.98 0.66 3 1 C2.67 4.63 2.34 8.26 2 12 C1.67 12 1.34 12 1 12 C0.67 8.04 0.34 4.08 0 0 Z " fill="#7C7B82" transform="translate(460,387)"/>
</svg>
